<?xml version="1.0" encoding="utf-8"?>
<!DOCTYPE svg PUBLIC "-//W3C//DTD SVG 20010904//EN" "http://www.w3.org/TR/2001/REC-SVG-20010904/DTD/svg10.dtd">
<svg version="1.0" xmlns="http://www.w3.org/2000/svg" width="311px" height="313px" viewBox="0 0 311 313" preserveAspectRatio="xMidYMid meet">
 <g fill="#1a5526">
  <path d="M122.2 311.2 c0.2 -0.4 2 -4.1 4 -8.2 12.9 -25.8 15.5 -61.9 6.4 -88.6 -4.9 -14.5 -12.7 -26.9 -22.3 -35.4 -5.6 -5 -12.5 -8.4 -15.3 -7.5 -5.1 1.6 -8.4 11.5 -5.9 17.8 0.7 1.7 4.8 7.4 9.2 12.6 9.5 11.3 11.5 15.1 9.9 18.3 -1 2.2 -1.1 2.2 -1.1 -0.7 -0.1 -3.6 -3.2 -8.4 -11.8 -18.3 -6.7 -7.8 -9.7 -13.3 -9 -16.9 0.9 -4.8 -1.3 -1.9 -5.6 7.1 -3.6 7.5 -6.1 11 -12.3 17.6 -7.1 7.4 -15.1 13 -18.6 13 -0.7 0 0.7 -1 3.2 -2.2 2.5 -1.2 8.2 -5.9 12.7 -10.4 6.8 -7 9.1 -10.1 13.6 -19.1 6.9 -14.1 10.2 -19.1 13.2 -20.5 1.4 -0.6 2.5 -1.5 2.5 -1.9 0 -1.4 -5.3 -3.7 -11.1 -4.7 -7.2 -1.4 -12.6 -0.1 -16 3.6 -1.4 1.6 -3.2 3.1 -4.1 3.4 -1.3 0.5 -1.2 0.2 0.1 -2.8 1.2 -2.6 2.7 -3.7 6.3 -4.9 6.5 -2.2 6.7 -3.3 1.1 -4 -2.7 -0.3 -6.1 -1 -7.8 -1.4 -5.5 -1.6 12.5 -1.2 19.3 0.4 16 3.8 25.3 9.8 45.6 29.5 6 5.8 10.6 9.6 10.3 8.5 -0.3 -1.1 -1.1 -4.5 -1.8 -7.5 -1.3 -5.9 -1.4 -6.1 -20.4 -23.1 -15.7 -14.1 -29.3 -17.8 -57 -15.7 -4.4 0.4 -7.2 0.4 -6.2 0.2 2.8 -0.9 2 -1.8 -3.9 -4.7 -6.7 -3.3 -12.2 -7.6 -15.4 -12 l-2.3 -3.2 2.4 2 c1.3 1.1 4.3 3.6 6.6 5.7 8.3 7.4 16.5 9.8 33.4 9.8 9.5 0 18.2 1.4 26.7 4.4 2.3 0.8 4.2 1.3 4.2 1 0 -1.1 -9.3 -15 -11.9 -17.7 -6.2 -6.7 -16.9 -8.9 -26.8 -5.4 -2.4 0.8 -4 1.1 -3.7 0.6 0.8 -1.4 10.5 -3.9 15 -3.9 2.4 0 5.5 0.5 7 1 1.5 0.6 2.9 0.8 3.1 0.6 0.7 -0.7 -10.3 -7.6 -14 -8.8 -1.8 -0.6 -6.3 -4.3 -10.2 -8.3 -8 -8.3 -9.9 -9.5 -15.2 -9.6 l-3.8 -0.1 3 -0.9 c3.6 -1.1 7.9 0.2 11.2 3.3 2.5 2.4 3.1 1 0.9 -2.5 -0.9 -1.5 -1.2 -3.7 -0.7 -7.2 l0.7 -5 0.6 5.9 c0.9 7.5 4.9 15.7 9.6 19.4 2 1.6 7.8 5 12.8 7.6 9.8 5 14 8.9 26.3 24.2 3.6 4.4 11 11.7 16.8 16.4 5.8 4.7 10.9 9.3 11.4 10.3 1.7 3 2.9 1.9 2.9 -2.6 0 -8.1 -6 -25.9 -10.3 -30.6 -1.2 -1.2 -4.8 -3.6 -8 -5.3 -8.2 -4.1 -14.3 -10.1 -18.5 -18.2 -8.4 -16 -8.1 -15.6 -17.3 -20.9 -2.5 -1.4 -5.2 -3.3 -6 -4.3 -0.7 -0.9 2.6 0.7 7.4 3.7 6.7 4.1 9.6 6.6 11.9 10.2 1.7 2.6 3.4 4.7 3.7 4.7 1 -0.1 6.4 -17.6 6.4 -20.8 0 -4.3 -1.6 -5.9 -8.1 -7.7 -3.2 -0.9 -8.1 -3.2 -10.9 -5.1 -5.8 -3.7 -7.3 -5.6 -2 -2.4 1.7 1.1 4.2 2 5.4 2 1.2 0 2.4 0.4 2.8 0.9 0.3 0.5 2.9 1.7 5.8 2.7 2.8 0.9 5.7 1.9 6.4 2.1 0.6 0.3 1.3 -0.6 1.6 -1.9 0.2 -1.3 0.5 0.9 0.6 4.7 0 4.7 -0.7 9.9 -2.4 16 -3.8 13.8 -3.1 19.7 3.3 25.8 5.7 5.4 18.3 10 16.8 6.1 -1.4 -3.6 -7.5 -30.3 -8.1 -35.4 -0.4 -3.1 -0.2 -10.8 0.5 -17.2 2.1 -21.1 -1.8 -31.6 -15 -41.1 -2.1 -1.5 -1.9 -1.5 1.5 0.2 2.2 1 4.8 2.8 5.9 4 4.5 4.9 4.9 -2.4 0.6 -9.3 -1.7 -2.6 -2.6 -4.5 -2 -4.1 2.2 1.3 5.8 9.3 6.4 14 0.3 2.8 1.5 7.9 2.6 11.3 1.3 4.3 2 9.2 2 14.8 0 8.4 0.7 10.1 2.5 6.4 0.6 -1 3.2 -5.1 5.9 -8.9 4.6 -6.6 4.9 -7.4 4.8 -13 -0.1 -7.3 -2.5 -13.3 -7.7 -19 -4.7 -5.1 -3.8 -5.4 1.1 -0.3 4.9 5.1 9.4 14.7 9.4 19.9 0 5.2 -1.2 8.1 -6.7 16.1 -2.4 3.4 -5.1 7.8 -5.9 9.7 -1.8 4.3 -1.8 14.5 -0.1 16.9 1.3 1.7 1.6 1.5 4.9 -2.5 5.5 -6.8 13.7 -19.5 16.4 -25.2 3.9 -8.4 3.4 -16.8 -1.5 -27.2 -2.1 -4.6 -3.6 -8.6 -3.3 -9 0.4 -0.4 1.2 -2.1 1.8 -3.8 1 -3 1.1 -3 1 1.8 -0.1 3.7 0.7 6.5 2.8 10.5 1.6 3 3.3 5.8 3.7 6.1 0.6 0.3 0.5 4.9 0 11 -1 11.1 -3.7 19.2 -9.3 27.8 -1.6 2.4 -2.6 4.6 -2.3 4.9 0.3 0.3 2.7 -0.5 5.3 -1.8 12.9 -6.8 14.9 -9.4 13.9 -18.3 -0.3 -3.3 -0.2 -4.5 0.3 -3.2 0.5 1.1 0.9 3.5 0.9 5.3 0.1 3.8 2.1 4.3 4.4 1 l1.6 -2.3 -0.6 2.2 c-0.7 2.9 -9.9 11.5 -15.1 14.2 -2.3 1.2 -4.2 2.4 -4.2 2.8 0 0.4 1.2 2 2.8 3.7 l2.7 2.9 -3.2 -2.1 c-4.3 -3 -9.4 -2.9 -12.6 0.4 -4.6 4.5 -4.6 13 0 29.7 1.6 5.8 3.3 7.6 3.3 3.4 0 -3.4 3.9 -6.6 9.5 -7.6 l4.9 -0.9 -5.4 5.2 c-3 2.9 -6.5 5.9 -7.8 6.8 l-2.3 1.6 2.9 6.3 c3.8 8.4 7.6 12.9 11 12.9 5.6 0 18.2 -16.9 18.2 -24.5 0 -5.6 -3.6 -7.1 -7.8 -3.2 -2.8 2.4 -2 0.4 1.1 -3 l2 -2.2 -2.7 -1.1 c-1.5 -0.5 -5.5 -1 -8.9 -1.1 -7.4 -0.1 -10.9 -1 -11.5 -2.8 -0.3 -1 0 -1.1 1.6 -0.2 1.1 0.6 5.5 1.1 9.7 1.1 6.9 0 7.6 -0.2 7 -1.8 -1.8 -4.7 -1.5 -7.2 2 -16.2 7.5 -19.3 8.4 -21.8 9.6 -27.6 1 -4.9 0.9 -7 -0.4 -12.9 -1.7 -7.4 -1.5 -10.2 0.2 -3.8 2.5 8.8 2.3 18.9 -0.7 27.3 -0.3 0.8 1.2 -0.1 3.2 -2 2 -1.9 7.4 -6 11.9 -9 10 -6.7 13.7 -11.6 14.7 -19.7 l0.7 -5.8 0.2 4.6 c0.2 9.4 -3.4 14.4 -17.2 23.9 -11.2 7.6 -14.6 11.7 -19.7 23.5 -3.1 7.4 -3.8 13.2 -1.8 16.8 0.6 1.2 2.8 4.2 5 6.6 2.1 2.4 3.8 5.2 3.8 6.2 0 1.1 0.4 1.9 0.9 1.9 0.5 0 1.4 -3 2 -6.7 0.7 -3.8 1.7 -8.8 2.3 -11.2 1.4 -5.3 8.1 -14.6 13.9 -19.2 2.3 -1.9 7.1 -6.1 10.5 -9.5 5.5 -5.3 6.5 -7 8.4 -13.3 1.2 -3.9 2.6 -11.3 3 -16.4 l0.8 -9.2 -0.2 12.5 c-0.1 7.8 -0.7 13.4 -1.5 14.8 -1.9 3.6 -0.4 3.9 3.1 0.6 l3.2 -2.9 -3.3 4.3 c-1.8 2.3 -8.9 9.5 -15.8 16 -14.3 13.4 -17.2 18.3 -19.8 32.2 -1.8 9.8 -5.8 19.1 -10.7 24.6 -5.9 6.8 -9.8 12.1 -11.2 15.6 -2.3 5.7 -2.8 7.8 -1.7 7.8 0.6 0 1.3 -1.1 1.7 -2.4 0.3 -1.3 4.1 -5.9 8.4 -10.2 7 -6.9 8.5 -9 12.7 -18.3 5.7 -12.8 8.2 -16.9 12.8 -21.5 5.8 -5.8 10.2 -7.5 22.2 -8.5 12 -1.1 17.1 -2.8 20.2 -6.7 2.7 -3.5 2.8 -10.1 0.1 -15.6 -2.4 -4.9 -2 -6 0.6 -2.1 1 1.5 2.1 5.3 2.4 8.3 l0.6 5.5 2.8 -6 c1.5 -3.3 3.4 -7.7 4.2 -9.9 1.9 -5.3 1.7 -16 -0.5 -22.3 -1 -2.9 -1.4 -5 -1 -4.7 1.1 0.6 3.7 9.1 4.4 14.4 0.4 2.5 0.2 6.6 -0.4 9.2 -1.3 5.5 -0.7 7.8 1.9 7.1 1 -0.3 3.1 0.2 4.6 1 l2.9 1.5 -3.9 1.8 c-3.8 1.9 -3.8 1.9 -5.6 -0.4 l-1.8 -2.2 -1.9 2.7 c-1 1.6 -2.8 4.5 -3.8 6.6 -1.1 2.1 -3.5 5.7 -5.4 7.8 -1.8 2.2 -3.1 4.2 -2.8 4.5 0.3 0.3 6.4 0.6 13.6 0.7 l13 0.2 4.2 -4 4.2 -4 -2.1 3.5 c-2.2 3.7 -7.3 7 -10.8 7 -1.1 0 -2.3 0.3 -2.6 0.6 -1 1 7 7.6 11 9 2.3 0.8 2.9 1.3 1.7 1.4 -1.8 0.1 -1.6 0.4 1 2.6 l3 2.6 -3 -1.7 c-1.7 -0.9 -5.1 -3.2 -7.5 -5.1 -12.6 -9.5 -10.5 -8.9 -28.4 -8.9 -14.1 0.1 -16.8 0.3 -22 2.2 -11 4.2 -15.4 9.4 -20.8 24.7 -3.3 9.5 -5.7 13.6 -17.3 29.1 -4.8 6.4 -8.5 11.9 -8.2 12.1 0.3 0.3 3.1 -1.3 6.3 -3.6 3.7 -2.6 9.4 -5.2 15.8 -7.2 16 -5.1 20.6 -10.7 22.6 -27.8 0.6 -5.2 1.3 -9.7 1.6 -10 0.3 -0.3 0.3 2.5 -0.1 6.3 -0.7 6 -0.5 6.7 1 6.7 2.6 0 21.4 -9 26 -12.4 l4 -3 -2.5 2.8 c-1.4 1.6 -7.2 5 -13 7.7 -5.7 2.8 -11.3 5.7 -12.3 6.7 -1.1 0.9 -3.3 4.4 -4.9 7.7 -1.7 3.3 -4 7.1 -5.2 8.4 l-2.1 2.3 5.4 -0.7 c8.4 -1.1 17.2 -4.5 34.6 -13.3 8.8 -4.5 17.4 -8.4 19 -8.6 2.9 -0.5 2.9 -0.5 0.5 0.5 -14.4 6.1 -22.1 10.9 -17.6 10.9 0.8 0 3 2.3 5 5 3.5 4.8 3.8 5 8.4 5 2.9 0 7.4 -1 11.1 -2.5 3.4 -1.4 8.1 -2.7 10.4 -2.9 2.3 -0.2 3.3 -0.1 2.2 0.1 -1.1 0.3 -5.2 1.8 -9.2 3.4 -4.1 1.6 -8.8 2.9 -10.6 2.9 -1.7 0 -4.9 0.3 -7 0.7 -4.1 0.6 -4.3 1.5 -2.2 6.7 0.6 1.4 0.5 1.7 -0.3 1.2 -0.9 -0.5 -1.2 0.7 -1.2 4.1 0 3.8 -1.2 7.2 -5.7 16.5 -3.1 6.5 -5.8 11.6 -6 11.4 -0.3 -0.2 1.8 -5.6 4.6 -11.8 5.8 -13 7.1 -20.4 5.1 -28.7 -2.3 -9.5 -7.6 -11.1 -18.4 -5.6 -13.8 7.1 -20.4 10.3 -23.8 11.6 -4.7 1.6 -4.8 2.5 -0.4 3.2 5.8 0.9 12.3 4.5 16 8.9 2 2.3 3.6 4.5 3.6 5 0 0.5 -1.4 -0.7 -3.1 -2.7 -3.9 -4.4 -4.9 -4.4 -4.9 -0.1 0 1.9 -0.9 4.4 -1.9 5.7 -2 2.4 -2 2.4 -0.3 -2.2 2.1 -6 0.8 -9.3 -4.6 -11.6 -5.1 -2.1 -16.6 -1.2 -22.8 1.8 -11.6 5.6 -20.9 19.5 -24 36 -3.2 16.7 0.2 46.8 9.1 79.3 1.4 5 2.9 11.2 3.4 13.9 l0.8 4.7 -25.9 0 c-14.3 0 -25.8 -0.4 -25.6 -0.8z"/>
  <path d="M238.8 236.4 c-3.4 -1.8 -4 -6.4 -0.9 -6.4 2.3 0 3.7 1.7 4.3 5.3 0.6 3.1 0.3 3.2 -3.4 1.1z"/>
  <path d="M110.2 233.5 c-4.3 -3.6 -4.4 -10.5 -0.1 -10.5 3.1 0 5 4 4.1 8.9 l-0.7 4.4 -3.3 -2.8z"/>
  <path d="M64.2 229.9 c-3.1 -3.1 -3.8 -5.2 -2.6 -8.3 0.8 -2.1 3.7 -2 5.7 0.2 1.7 1.9 2.1 6.3 0.9 9.5 -0.7 1.6 -1.1 1.4 -4 -1.4z"/>
  <path d="M92 232.3 c0 -0.5 0.9 -2.3 2 -4 1.6 -2.7 2.6 -3.3 5.4 -3.3 4.2 0 5.2 2 2.5 5.4 -1.6 2 -2.9 2.6 -6 2.6 -2.1 0 -3.9 -0.3 -3.9 -0.7z"/>
  <path d="M49 229.2 c0 -3.6 3.4 -6.2 5.3 -4.3 1.4 1.4 0.1 3.7 -3.1 5.9 -2.1 1.4 -2.2 1.3 -2.2 -1.6z"/>
  <path d="M33 227.6 c0 -2.3 2.3 -5.6 3.9 -5.6 2.9 0 3.6 1.8 1.5 4.1 -1.5 1.6 -5.4 2.7 -5.4 1.5z"/>
  <path d="M222 227.1 l-3.5 -0.6 3.7 -3.8 c3.9 -4 5.8 -4.5 8.2 -2.1 1.9 1.9 2 2.5 0.4 4.6 -1.7 2.1 -4.4 2.7 -8.8 1.9z"/>
  <path d="M233.6 222.5 c-0.3 -0.9 -0.5 -4.2 -0.5 -7.3 l0.2 -5.7 0.7 7 c0.8 7.3 0.7 8.7 -0.4 6z"/>
  <path d="M74.3 221.8 c-2.7 -1.3 -4.7 -5.9 -3.8 -8.8 0.4 -1.2 0.9 -2 1.1 -1.8 0.4 0.5 5.4 11.8 5.1 11.7 -0.1 0 -1.2 -0.5 -2.4 -1.1z"/>
  <path d="M202 221.6 c0 -1.5 5.5 -6.6 7.1 -6.6 4 0 6.2 4.3 3.7 6.8 -1.8 1.8 -10.8 1.6 -10.8 -0.2z"/>
  <path d="M261 221 c0 -0.5 0.5 -1 1.2 -1 0.6 0 0.9 -0.2 0.6 -0.5 -0.3 -0.3 -1.7 -0.1 -3.2 0.4 -3.3 1.3 -3.3 0.9 0.5 -3.4 3.6 -4.1 8.1 -4.8 9.9 -1.5 1.2 2.3 0 5.4 -2.6 6.4 -2.5 0.9 -6.4 0.7 -6.4 -0.4z m7 -3.5 c1.4 -0.8 2.1 -1.4 1.5 -1.4 -0.5 0 -2.1 0.6 -3.5 1.4 -1.4 0.8 -2 1.4 -1.5 1.4 0.6 0 2.1 -0.6 3.5 -1.4z"/>
  <path d="M95.7 219.2 c-2.6 -2.8 -2.1 -3.2 1.8 -1.6 1.9 0.7 4.2 1.4 5.2 1.3 1.4 0 1.4 -0.2 0.3 -0.5 -7.9 -2.6 -10.1 -3.7 -8.9 -4.5 2.8 -1.7 6.7 -1 8.8 1.7 1.6 2.1 1.8 3 1 4 -1.6 2 -6.3 1.7 -8.2 -0.4z"/>
  <path d="M30.8 218.3 c-1.6 -1.9 -3.8 -5.7 -3.8 -6.7 0 -0.3 1.7 -0.6 3.8 -0.6 4.5 0 7.5 2.6 7 6.2 -0.4 3 -4.7 3.7 -7 1.1z"/>
  <path d="M74.8 215.4 c-0.8 -2.4 -1.2 -4.4 -0.8 -4.4 1.4 0 4 3.7 4 5.8 0 3.8 -1.5 3.1 -3.2 -1.4z"/>
  <path d="M278.8 216.9 c-2.2 -1.2 -2.4 -4.9 -0.3 -4.9 1.7 0 2.8 2.1 2.3 4.4 -0.2 1.1 -0.7 1.2 -2 0.5z"/>
  <path d="M43.2 214.4 c-3.5 -2.4 -2.6 -7.3 1.1 -5.8 1.4 0.5 3.7 4.5 3.7 6.4 0 1.5 -2.3 1.2 -4.8 -0.6z"/>
  <path d="M236.7 213.2 c-2.2 -2.4 -0.7 -5.2 1.7 -3.3 1.7 1.4 2.2 5.1 0.8 5.1 -0.5 0 -1.6 -0.8 -2.5 -1.8z"/>
  <path d="M205.1 208.8 c-0.9 -2.4 0.3 -5.8 2 -5.8 1.5 0 2.2 2.7 1.5 5.5 -0.8 3.1 -2.4 3.2 -3.5 0.3z"/>
  <path d="M108.2 208.4 c-1.5 -1 -2.2 -2.4 -2 -3.7 0.4 -3.2 5.9 -3.5 9.9 -0.6 l3.2 2.2 -3.4 1.8 c-4.2 2.3 -4.9 2.3 -7.7 0.3z"/>
  <path d="M264.8 209.3 c-2.5 -0.6 -2.3 -1.5 1.1 -4.7 3.7 -3.6 8.4 -3.4 8.9 0.3 0.6 4.1 -3.9 6 -10 4.4z"/>
  <path d="M61.4 207.6 c-0.8 -2.2 0.3 -3.3 1.8 -1.8 0.9 0.9 0.9 1.5 0 2.4 -0.9 0.9 -1.3 0.7 -1.8 -0.6z"/>
  <path d="M81.5 204.4 c-1.9 -4.7 -1.9 -5.7 0.4 -8.5 1.9 -2.3 1.9 -2.4 4 -0.5 1.2 1.1 2.1 2.5 2.1 3.3 0 1.5 -3.8 9.3 -4.5 9.3 -0.3 0 -1.2 -1.6 -2 -3.6z"/>
  <path d="M277.2 205 c0 -1.9 0.2 -2.7 0.5 -1.7 0.2 0.9 0.2 2.5 0 3.5 -0.3 0.9 -0.5 0.1 -0.5 -1.8z"/>
  <path d="M280.7 207.3 c-1.2 -1.1 -0.8 -3.3 0.6 -3.3 0.8 0 2.2 0.9 3.2 2 1.8 1.9 1.7 2 -0.7 2 -1.3 0 -2.8 -0.3 -3.1 -0.7z"/>
  <path d="M240.5 203 c-1.4 -4.4 2.8 -5.5 6.3 -1.7 2.6 2.8 2 3.7 -2.4 3.7 -2.4 0 -3.4 -0.5 -3.9 -2z"/>
  <path d="M40 201.4 c-1.1 -1.2 -1 -1.8 0.3 -3.2 1.6 -1.5 2 -1.5 5.3 0.3 3.3 1.7 3.4 2 1.8 3.2 -2.4 1.8 -5.9 1.6 -7.4 -0.3z"/>
  <path d="M260.7 201.6 c-2.3 -2.3 -2.1 -4.4 0.5 -8.6 l2.2 -3.5 0.7 2.5 c0.4 1.4 0.8 1.8 0.8 1 0.1 -1.3 0.2 -1.3 1.1 0 1.6 2.4 1.2 4.7 -1.3 7.6 -2.2 2.5 -2.4 2.5 -4 1z m3.1 -5.1 c0 -1.6 -0.2 -1.5 -0.8 0.5 -1.1 3.4 -1.1 6 0 3.5 0.5 -1.1 0.8 -2.9 0.8 -4z"/>
  <path d="M213 200.1 c0 -0.5 1.3 -1.4 3 -2.1 1.6 -0.7 3.4 -1.8 4 -2.6 0.7 -0.7 -1.4 0.1 -4.4 1.7 l-5.6 3.1 1.1 -2.9 c1.3 -3.5 2.5 -4.3 7.2 -4.3 4.3 0 4.7 1.4 1.6 5.4 -1.9 2.5 -6.9 3.7 -6.9 1.7z"/>
  <path d="M64 199.2 c0 -1.6 3.2 -5.2 4.6 -5.2 2.4 0 3 3.1 0.9 4.6 -2 1.5 -5.5 1.9 -5.5 0.6z"/>
  <path d="M250.3 195.7 c-1.7 -3.7 -1.6 -5.8 0.3 -8.5 1.8 -2.6 3.4 -2.9 3.4 -0.4 0 1.3 0.2 1.4 0.9 0.4 0.7 -1.1 1 -1 1.5 0.3 1.1 2.9 0.7 5.1 -1.4 7 -2.3 2.1 -2.3 2.1 -1.1 -2.3 0.5 -1.7 0.6 -3.2 0.2 -3.2 -0.4 0 -1.2 2.1 -1.7 4.7 l-0.9 4.8 -1.2 -2.8z"/>
  <path d="M278.5 197 c-0.9 -1.5 0.3 -3 2.4 -3 2.5 0 3.3 1.1 2 2.7 -1.3 1.5 -3.5 1.7 -4.4 0.3z"/>
  <path d="M19.4 194.9 c-0.8 -1.3 2.2 -5.5 5.9 -8.3 2.2 -1.6 3.1 -1.8 5.2 -0.8 5.6 2.6 0.8 10.2 -6.4 10.2 -2.2 0 -4.3 -0.5 -4.7 -1.1z"/>
  <path d="M48.7 192.8 c1.4 -2.4 2.7 -3.4 4.8 -3.6 l3 -0.2 -2.5 2 c-5.4 4.5 -6 5 -6.6 5 -0.3 0 0.3 -1.5 1.3 -3.2z"/>
  <path d="M52.5 193.5 c1.9 -1.6 3.1 -2 3.4 -1.3 0.5 1.4 -2.7 3.8 -4.8 3.8 -1.1 -0.1 -0.6 -0.9 1.4 -2.5z"/>
  <path d="M189.2 191.3 c-4.8 -1.7 -7.5 -5 -7 -8.5 0.4 -3 5.1 -3.7 7.9 -1.2 1.8 1.6 4.4 8.7 3.7 10.3 -0.2 0.5 -2.2 0.1 -4.6 -0.6z"/>
  <path d="M37.4 190.5 c-0.7 -1.7 1.2 -4.5 3 -4.5 0.6 0 2.2 0.9 3.6 2 2.1 1.7 2.3 2.1 1 3 -2.3 1.5 -7 1.2 -7.6 -0.5z"/>
  <path d="M62 189.9 c0 -2.2 2.2 -4.9 4 -4.9 2.8 0 3.4 1.9 1.4 4.1 -1.8 2 -5.4 2.6 -5.4 0.8z"/>
  <path d="M99 189 c-8.2 -2 -9.7 -12 -1.8 -12 1.8 0 3.8 1 5.2 2.5 2.3 2.5 6 10.5 4.8 10.5 -0.4 0 -3.8 -2.5 -7.7 -5.6 -3.8 -3 -5.4 -4 -3.5 -2.2 1.9 1.8 4.9 4.3 6.5 5.5 3.1 2.3 2.3 2.6 -3.5 1.3z"/>
  <path d="M229.5 188.6 l-2.9 -1.2 3.9 -2.7 c4.7 -3.2 6.6 -3.4 8.8 -0.9 2.1 2.3 2.1 2.7 0.1 4.6 -1.8 1.9 -5.8 2 -9.9 0.2z"/>
  <path d="M269.6 187.9 c-1.5 -0.9 -1.6 -1.3 -0.5 -2 1.2 -0.7 1.2 -0.9 0 -0.9 -1.1 0 -1 -0.5 0.4 -2 2.3 -2.5 5.5 -2.6 8.3 -0.2 l2.2 1.9 -2.3 2.1 c-2.5 2.4 -5.2 2.7 -8.1 1.1z"/>
  <path d="M12.7 184.3 c0.3 -2.1 0.2 -2.4 -0.5 -1.4 -0.8 1.1 -1.2 0.2 -1.7 -3.3 -0.6 -3.9 -0.4 -5.3 1.2 -7.4 1.1 -1.5 2.8 -2.8 3.7 -3 1.5 -0.3 1.4 0.2 -0.4 4.8 -1.1 2.8 -2 5.6 -1.9 6.3 0 0.7 0.9 -1 2 -3.8 2.5 -6.2 3.7 -7.5 4.9 -5.5 2.5 4 0.5 9.1 -5.6 14.3 -2.1 1.7 -2.1 1.7 -1.7 -1z"/>
  <path d="M199.7 186.1 c-1.7 -0.6 -1.6 -1 1.2 -4 3.3 -3.6 7.5 -4 9.5 -0.9 2.4 3.9 -4.9 7.2 -10.7 4.9z"/>
  <path d="M258.8 185 c-3.2 -1.8 -6.8 -5.5 -9.3 -9.9 -0.4 -0.7 1.7 1.1 4.6 4 3 3 6.3 5.9 7.4 6.6 3.2 1.9 1.3 1.4 -2.7 -0.7z"/>
  <path d="M49.3 180.7 c-2.8 -3.1 -3.4 -5.3 -2.3 -8.2 2.3 -6 7.9 -1 6.6 5.9 -0.9 4.5 -1.8 5.1 -4.3 2.3z"/>
  <path d="M27.2 180 l-2.3 -1.9 2.5 -0.7 c3.7 -0.9 6.1 -0.1 6.1 2.1 0 2.7 -3.4 3 -6.3 0.5z"/>
  <path d="M257 179.3 c-3.7 -1.4 -3.9 -5.4 -0.5 -8.8 2 -2.1 3.4 -2.5 8.2 -2.5 l5.8 0 -2.5 2 c-1.4 1.1 -4.9 2.9 -7.8 4.1 -2.9 1.2 -5.1 2.4 -4.8 2.6 0.2 0.3 3.3 -0.9 6.8 -2.5 3.4 -1.7 6.4 -2.9 6.7 -2.7 0.7 0.8 -7.6 8.5 -9 8.4 -0.8 0 -2.1 -0.3 -2.9 -0.6z"/>
  <path d="M70.8 175.9 c-2.4 -1.3 -2.3 -4.6 0.1 -5.9 2.5 -1.3 5.2 -1.3 8.8 0.1 l2.8 1 -3.3 3 c-3.4 3 -5.5 3.5 -8.4 1.8z"/>
  <path d="M221 176.3 c-5.7 -2.1 -8.2 -9.7 -3.6 -10.9 1.3 -0.3 3.4 0 4.6 0.6 2.2 1.2 5 6.5 5 9.5 0 1.5 -2.9 1.9 -6 0.8z"/>
  <path d="M40 172.5 c1.4 -1.7 8 -5.9 8.4 -5.4 0.2 0.2 -1.9 1.9 -4.7 3.7 -2.7 1.8 -4.4 2.6 -3.7 1.7z"/>
  <path d="M232.1 169.1 c-2.4 -1.5 4.1 -7.3 7.6 -6.9 3.1 0.3 4.3 3.8 2.3 6.4 -1.4 1.5 -7.7 1.9 -9.9 0.5z"/>
  <path d="M289.5 167 c-2.4 -2.7 -1.3 -7 1.8 -7 3.2 0 6.3 2.5 7.5 6 l1.1 3 -4.3 0 c-3 0 -4.8 -0.6 -6.1 -2z m8.5 -0.5 c0 -0.6 -7.6 -4.5 -8.7 -4.5 -0.4 0.1 1.2 1.2 3.7 2.5 5 2.7 5 2.7 5 2z"/>
  <path d="M41 164.8 c0 -3.1 1.7 -4.5 3.3 -2.9 0.8 0.8 0.5 1.7 -1.1 3.3 l-2.2 2.2 0 -2.6z"/>
  <path d="M54.3 166.3 c3.8 -0.4 4.8 -1.6 2.2 -2.7 -2.2 -0.8 -1.9 -2.6 0.4 -2.6 2.5 0 3.2 1.1 2.4 3.8 -0.4 1.9 -1.2 2.2 -4.7 2 l-4.1 -0.1 3.8 -0.4z"/>
  <path d="M12 164.5 c0 -0.8 -0.5 -1.5 -1.2 -1.5 -1.8 0 2.5 -2.9 4.3 -3 0.9 0 2.2 0.7 2.9 1.5 1.7 2 -0.3 4.5 -3.6 4.5 -1.5 0 -2.4 -0.6 -2.4 -1.5z"/>
  <path d="M31.9 163.6 c3.1 -3.3 6.4 -3.5 5.9 -0.3 -0.2 1.8 -1 2.3 -4.3 2.5 l-4 0.3 2.4 -2.5z"/>
  <path d="M105.4 164.7 c-0.2 -0.7 -0.1 -2.4 0.4 -3.7 l0.9 -2.4 1.2 2.3 c1.3 2.4 0.9 5.1 -0.9 5.1 -0.6 0 -1.3 -0.6 -1.6 -1.3z"/>
  <path d="M186.4 162.5 c-2 -3.1 -1.4 -9.3 1.2 -13.3 1.5 -2.2 1.9 -2.4 2.2 -0.9 0.2 0.9 0.8 1.5 1.3 1.1 1.2 -0.7 3.9 5.7 3.9 9.5 0 5.8 -5.6 8.1 -8.6 3.6z m4.3 -10.2 c-0.3 -1 -0.5 -0.2 -0.5 1.7 0 1.9 0.2 2.7 0.5 1.8 0.2 -1 0.2 -2.6 0 -3.5z"/>
  <path d="M278.2 163.8 c-1.8 -1.8 -1.4 -3.8 0.8 -3.8 1.1 0 2 0.4 2 0.9 0 0.5 0.3 1.6 0.6 2.5 0.7 1.9 -1.6 2.2 -3.4 0.4z"/>
  <path d="M15.7 154.8 c-1.3 -1.8 -2.8 -4.5 -3.4 -5.9 l-1.1 -2.6 5 0.3 c7.2 0.5 8.6 1.1 10.4 4.5 1.9 3.9 0.9 5.7 -2 3.2 -1.1 -1.1 -3 -2.5 -4.1 -3.2 -1.1 -0.7 -0.3 0.2 1.8 2 2 1.9 3.7 3.7 3.7 4.2 0 0.4 -1.8 0.7 -3.9 0.7 -3.4 0 -4.4 -0.5 -6.4 -3.2z"/>
  <path d="M43 155.9 c-1 -1.8 -0.9 -2 1.2 -1.7 1.2 0.2 2.4 1.1 2.6 2.1 0.5 2.4 -2.5 2.2 -3.8 -0.4z"/>
  <path d="M257 157 c-6 -1.4 -9 -7.7 -4.9 -10.3 3 -1.9 6.9 0.1 8.9 4.6 3.2 6.9 2.9 7.3 -4 5.7z"/>
  <path d="M284.2 156.9 c0.2 -0.7 1.4 -1.9 2.7 -2.7 2.2 -1.5 2.3 -1.5 1.9 0.9 -0.2 1.6 -1 2.5 -2.7 2.7 -1.5 0.3 -2.2 -0.1 -1.9 -0.9z"/>
  <path d="M121.8 155.9 c-2.8 -1.6 -2.2 -6.4 1.1 -10.1 l3 -3.3 -1 4 c-1.9 7.9 -1.9 9.9 -0.1 4.5 l1.8 -5.5 0.7 3.4 c0.5 2.4 0.2 4.1 -0.8 5.8 -1.7 2.6 -2.2 2.7 -4.7 1.2z"/>
  <path d="M212.2 152.1 c-1.9 -1.2 -1.1 -4.5 1.2 -4.9 2 -0.4 6.8 3.6 6 4.9 -0.7 1.1 -5.5 1.1 -7.2 0z"/>
  <path d="M265.7 150.8 c-1.6 -1.3 -3.7 -5.8 -3.7 -8.1 0 -0.6 2.1 0.9 4.7 3.3 l4.8 4.5 -4 -4.2 c-3.2 -3.6 -3.6 -4.3 -2 -4.3 2.8 0 4.2 1.1 5.4 4.3 1.9 4.9 -1.2 7.5 -5.2 4.5z"/>
  <path d="M234.8 146.3 c-0.3 -3.9 0.4 -5.9 2.9 -8.5 2 -2.1 2.9 -2.5 3.5 -1.6 1.2 2 0.9 9.3 -0.4 10.6 -1.9 1.9 -5.8 1.5 -6 -0.5z"/>
  <path d="M32.8 143.6 c2.2 -3.8 5.7 -4.6 6.7 -1.6 0.9 2.9 -0.8 4.4 -5 4.5 l-3.5 0.2 1.8 -3.1z"/>
  <path d="M197.6 145.7 c-1.5 -1.1 -4.2 -9.4 -3.4 -10.2 0.9 -0.9 6.9 2.7 8.3 4.9 3.1 4.7 -0.4 8.6 -4.9 5.3z"/>
  <path d="M223.8 145.9 c-1.9 -1 -2.4 -3.4 -1 -4.3 1.2 -0.7 2.9 0.7 3.6 3.2 0.8 2.4 0.1 2.7 -2.6 1.1z"/>
  <path d="M152 144.1 c0 -2 1.7 -3.7 2.7 -2.8 0.7 0.8 -0.7 4.7 -1.8 4.7 -0.5 0 -0.9 -0.9 -0.9 -1.9z"/>
  <path d="M275.2 144.4 c-2.7 -1.8 -2.8 -3.1 -0.4 -3.7 1.5 -0.4 1.5 -0.5 -0.2 -0.6 -1.5 -0.1 -1.6 -0.4 -0.6 -1.6 2 -2.5 5.9 -1.8 9.3 1.7 l3.2 3.1 -3 1.3 c-4 1.7 -5.6 1.7 -8.3 -0.2z"/>
  <path d="M108.6 142.3 c-0.7 -1.8 2 -6.3 4.2 -7.1 1.6 -0.5 1.6 6 0 7.6 -1.7 1.7 -3.5 1.5 -4.2 -0.5z"/>
  <path d="M65.5 139.2 c-1.3 -6 3.7 -11.4 7.2 -7.9 1.9 1.9 1.1 4.7 -2.4 8.1 -3.3 3.3 -4 3.3 -4.8 -0.2z"/>
  <path d="M118 141 c-2.3 -1.4 2 -5.5 4.9 -4.5 2.6 0.8 2.7 3.1 0.2 4.5 -2.4 1.2 -3.2 1.2 -5.1 0z"/>
  <path d="M78 140.7 c0 -0.4 0.8 -2.2 1.7 -4.2 1.7 -3.6 4.9 -5.3 7.8 -4.1 1.9 0.7 1.9 5 0 6.6 -1.5 1.3 -9.5 2.7 -9.5 1.7z"/>
  <path d="M145 138.9 c-1 -1.8 -0.9 -2 1.2 -1.7 1.2 0.2 2.4 1.1 2.6 2.1 0.5 2.4 -2.5 2.2 -3.8 -0.4z"/>
  <path d="M213.7 138 c-1.6 -2.3 -1.1 -6.4 0.6 -5.3 0.6 0.4 0.8 0 0.4 -1 -0.8 -2.2 0.2 -2.2 1.9 0.1 1.8 2.3 1.7 5.7 0 7.1 -1.1 1 -1.7 0.8 -2.9 -0.9z"/>
  <path d="M261.3 136.5 l0.6 -4 -1.2 3.4 c-1.1 2.9 -1.5 3.2 -2 1.7 -0.8 -2.2 1.9 -7 3.3 -6.1 0.6 0.4 1 -0.2 1.1 -1.2 0 -1 0.5 -0.5 1 1.2 1 3.5 0.5 5.8 -1.8 7.7 -1.5 1.2 -1.6 0.9 -1 -2.7z"/>
  <path d="M25.5 135.9 c1.8 -3.4 4.4 -4.4 6.4 -2.4 2.4 2.4 0.2 5 -4.2 5 -3.5 0.1 -3.5 0 -2.2 -2.6z"/>
  <path d="M162.4 134.5 c-0.4 -1.4 -0.4 -2.8 -0.1 -3.1 0.8 -0.9 4.8 3.6 4.2 4.6 -1.2 1.9 -3.5 1 -4.1 -1.5z"/>
  <path d="M280 134 c-2.2 -2.2 -1.9 -4 0.5 -4 1.5 0 3.2 4.6 2.2 5.6 -0.3 0.3 -1.5 -0.4 -2.7 -1.6z"/>
  <path d="M142.2 134.2 c-0.8 -0.6 0.5 -2.2 4.5 -5.5 3.1 -2.5 5.9 -4.5 6.1 -4.3 0.8 0.9 -2.8 7.5 -4.9 9 -2.6 1.8 -3.8 2 -5.7 0.8z"/>
  <path d="M16.7 133.3 c-1.3 -1.2 -0.7 -6.8 0.9 -9.1 2.3 -3.3 5.8 -2.6 6.2 1.2 0.3 2 -0.4 3.6 -2.4 5.7 -2.9 3 -3.6 3.4 -4.7 2.2z"/>
  <path d="M227.7 132.3 c-1.2 -1.1 -0.7 -5.7 0.7 -7.5 1.9 -2.6 2.4 -2.3 3.2 1.7 0.8 4.4 -1.7 8.1 -3.9 5.8z"/>
  <path d="M289.6 131.5 c-1.1 -0.8 -1.6 -2.1 -1.3 -3 1.3 -3.2 4.3 -0.7 3.5 2.9 -0.3 1.3 -0.6 1.3 -2.2 0.1z"/>
  <path d="M99.2 130.8 c-1.7 -1.7 -1.5 -3.2 0.9 -6.2 2.8 -3.6 3.9 -3.3 3.9 1.4 0 4.3 -2.6 7 -4.8 4.8z"/>
  <path d="M248 131.1 c0 -0.4 1 -2.3 2.3 -4.2 1.7 -2.6 3 -3.4 5.2 -3.4 2.7 0 3 0.3 3 3 0 2.1 -0.7 3.3 -2.5 4.2 -2.8 1.4 -8 1.7 -8 0.4z"/>
  <path d="M48.6 129.4 c-1.8 -4.7 0.9 -10.4 4.9 -10.4 4.9 0 4.1 6 -1.4 9.9 -2.5 1.8 -3 1.9 -3.5 0.5z"/>
  <path d="M201.2 129.8 c-0.7 -0.7 -1.2 -2.1 -1.2 -3.2 0 -1.9 0.3 -1.8 2.6 0.9 l2.6 3 -2.6 -3.7 c-3.3 -4.7 -3.3 -5.2 0.3 -3.4 3.4 1.8 4.6 4.3 3 6.2 -1.4 1.7 -3.1 1.8 -4.7 0.2z"/>
  <path d="M36.3 128 c-2.7 -1.1 -2.9 -3.1 -0.5 -5.3 2.7 -2.5 6.6 -3.1 8.2 -1.2 1.1 1.3 1 2 -0.7 4.3 -2.3 3 -3.8 3.5 -7 2.2z m4.5 -3 c1.7 -1.1 3.2 -2.3 3.2 -2.6 0 -0.4 -0.6 -0.2 -1.3 0.4 -0.7 0.7 -2.9 1.8 -4.8 2.6 -1.9 0.9 -2.7 1.5 -1.9 1.6 0.8 0 3 -0.9 4.8 -2z"/>
  <path d="M2.5 127 c-1.3 -2 6.1 -10 9.2 -10 1.6 0 4.3 2.8 4.3 4.6 0 3 -4.7 6.4 -8.9 6.4 -2.2 0 -4.3 -0.5 -4.6 -1z"/>
  <path d="M298.3 126.3 c-2.1 -0.8 -1.5 -5.1 0.8 -6.4 1.7 -0.8 3.1 -0.7 6.6 0.6 l4.5 1.7 -2.8 2.4 c-2.7 2.2 -6.3 2.9 -9.1 1.7z"/>
  <path d="M215.2 123.8 c-3 -3 0.6 -6.8 6.3 -6.8 4.5 0 3.8 1.2 -1.7 3 -2.1 0.6 -4 1.5 -4.3 1.9 -0.2 0.5 2.5 -0.2 6 -1.5 3.6 -1.3 6.5 -2 6.5 -1.6 0 0.5 -1.3 2 -2.8 3.5 -3 2.9 -7.9 3.6 -10 1.5z"/>
  <path d="M282 123.1 c0 -1.7 1.2 -4.1 2.1 -4.1 0.5 0 0.9 1.1 0.9 2.5 0 1.6 -0.6 2.5 -1.5 2.5 -0.8 0 -1.5 -0.4 -1.5 -0.9z"/>
  <path d="M291.1 122.1 c-1 -0.7 -1 -1.3 -0.2 -3 1.6 -2.8 3.1 -2.7 3.1 0.3 0 2.9 -1 3.8 -2.9 2.7z"/>
  <path d="M26.9 120.3 c-1.3 -1.5 -1.1 -1.6 2.1 -1 3.4 0.6 2.3 -0.2 -2.5 -1.8 -2 -0.6 -2 -0.7 -0.1 -2.1 1.1 -0.8 2.7 -1.4 3.6 -1.4 2.4 0 6 2.9 6 4.9 0 3.3 -6.7 4.3 -9.1 1.4z"/>
  <path d="M111.3 121.3 c-1.4 -0.5 -1.7 -7.1 -0.5 -8.9 0.9 -1.4 6.6 -4.4 8.3 -4.4 2.3 0 0.2 9.3 -2.6 11.8 -2.7 2.3 -3.1 2.4 -5.2 1.5z"/>
  <path d="M239.5 120 c-0.9 -1.4 0.4 -5.2 1.6 -4.5 1.2 0.8 1.2 5.5 0 5.5 -0.6 0 -1.3 -0.5 -1.6 -1z"/>
  <path d="M268 120 c1.3 -0.9 1.3 -1.2 -0.2 -2.1 -2.6 -1.5 -2.2 -6.2 0.8 -9.9 1.5 -1.7 3 -2.8 3.5 -2.3 1.4 1.4 2.1 8 1 8.7 -0.6 0.4 -1.1 1.4 -1.1 2.2 0 1.2 0.4 1.2 2.5 -0.2 1.4 -0.9 2.5 -1.4 2.5 -1.1 0 0.8 -8.4 5.7 -9.6 5.7 -0.5 0 -0.2 -0.5 0.6 -1z"/>
  <path d="M40.7 116.3 c-1 -0.9 -0.8 -6.6 0.2 -8.2 1.4 -2.2 4.5 3.2 3.7 6.4 -0.6 2.4 -2.5 3.3 -3.9 1.8z"/>
  <path d="M57.3 116.3 c2 -0.2 5.4 -0.2 7.5 0 2 0.2 0.3 0.4 -3.8 0.4 -4.1 0 -5.8 -0.2 -3.7 -0.4z"/>
  <path d="M92 115.7 c0 -1.9 2.9 -5.7 4.4 -5.7 1.7 0 2.7 2.3 1.7 3.8 -1.1 1.8 -6.1 3.4 -6.1 1.9z"/>
  <path d="M9.6 113.6 c-2 -0.9 -2.5 -1.5 -1.5 -1.9 0.9 -0.3 0.5 -0.6 -0.8 -0.6 -5.1 -0.2 2.4 -6.1 7.6 -6.1 2.8 0 6.1 2.6 6.1 4.8 0 2 -3.9 5.2 -6.2 5.1 -1.3 0 -3.6 -0.6 -5.2 -1.3z m10.3 -4.2 c0.3 -0.4 -0.5 -0.4 -1.9 -0.1 -1.4 0.4 -3.7 0.7 -5.2 0.7 -1.6 0 -2.8 0.4 -2.8 0.9 0 0.9 8.9 -0.5 9.9 -1.5z"/>
  <path d="M50 112 c0 -2.1 0.4 -3 1.3 -2.7 0.6 0.2 1.2 1.4 1.2 2.7 0 1.3 -0.6 2.5 -1.2 2.8 -0.9 0.2 -1.3 -0.7 -1.3 -2.8z"/>
  <path d="M80.5 112 c0.3 -0.5 1.2 -1 1.8 -1 0.7 0 2.6 -1.1 4.2 -2.5 2.7 -2.2 2.4 -2.1 -2.7 0.6 -6.2 3.2 -7.1 2.8 -3.7 -1.5 1.7 -2.2 2.8 -2.7 5.8 -2.4 3 0.2 3.5 0.6 3.3 2.3 -0.6 3.2 -3.3 5.5 -6.4 5.5 -1.7 0 -2.7 -0.4 -2.3 -1z"/>
  <path d="M145 111.1 c0 -1.1 0.9 -2.3 2.1 -2.6 2.7 -0.9 3.3 -0.1 1.9 2.4 -1.4 2.6 -4 2.7 -4 0.2z"/>
  <path d="M166.8 110.9 c-1.8 -1 -2.5 -6.4 -1 -8.5 1.1 -1.7 4.5 -3.2 9.3 -4.3 l4.4 -0.9 -7 6.6 c-6.9 6.6 -6.6 6.8 0.9 0.5 2.2 -1.8 4.1 -3.1 4.3 -2.9 0.9 0.9 -2.7 7.5 -4.8 9 -2.7 1.8 -3.7 1.9 -6.1 0.5z"/>
  <path d="M69 110 c0 -0.6 1.2 -2.2 2.6 -3.7 2.4 -2.4 2.5 -2.6 0.7 -4.7 -0.9 -1.1 -1.1 -1.5 -0.3 -0.8 0.8 0.7 4 1.2 7.4 1.2 6.8 0 7.2 0.7 0.6 1.3 -4.2 0.4 -4.5 0.6 -4.2 3 0.3 2.1 -0.2 2.9 -2.3 3.7 -3.4 1.3 -4.5 1.3 -4.5 0z"/>
  <path d="M193.2 109.8 c-1.5 -1.5 -1.5 -6.5 0.1 -10.2 l1.3 -3 2.2 3.1 c2.4 3.4 2.8 6.4 1.2 9.4 -1.2 2.2 -3 2.5 -4.8 0.7z"/>
  <path d="M138.7 108.4 c-1 -1 -0.8 -6.6 0.2 -8.3 1.2 -1.9 4.4 3 3.9 6.1 -0.3 2.2 -2.7 3.5 -4.1 2.2z"/>
  <path d="M279.7 107.6 c-0.3 -0.8 0 -2.2 0.7 -3.2 1.3 -1.7 1.4 -1.6 2 0.4 1.1 3.4 -1.5 6 -2.7 2.8z"/>
  <path d="M252.2 105.8 c-1.6 -1.6 -1.5 -5.3 0.3 -8.8 2 -3.9 2.8 -3.8 4.8 0.6 1.5 3 1.5 4 0.5 6.2 -1.5 3 -3.7 3.9 -5.6 2z"/>
  <path d="M20.6 103.8 c-2.2 -3.1 -2 -3.8 0.8 -3.8 2.8 0 5.1 2.4 4.2 4.5 -0.8 2.2 -3.2 1.8 -5 -0.7z"/>
  <path d="M285 104.1 c0 -3.2 4.2 -7.3 7 -6.9 2.2 0.3 2.1 0.5 -1.8 3.2 -2.3 1.6 -4.2 3.3 -4.2 3.9 0 0.6 1.2 0 2.8 -1.4 1.5 -1.3 3.8 -3.3 5.1 -4.4 l2.4 -2 -0.7 3 c-0.9 3.8 -4 6.5 -7.7 6.5 -2.2 0 -2.9 -0.5 -2.9 -1.9z"/>
  <path d="M206.2 103 c-1.9 -3.1 -1.4 -6.9 1.3 -11.7 1.4 -2.3 2.8 -4.3 3 -4.3 0.3 0 1.4 1.8 2.5 4 3.2 6.3 2.4 14 -1.6 14 -0.8 0 -1.1 -1.4 -0.8 -4.2 0.3 -4 0 -3.5 -1.2 2 -0.6 2.7 -1.5 2.8 -3.2 0.2z"/>
  <path d="M112.6 101.6 c1.4 -4.4 4.8 -6.2 6 -3.1 0.8 2 -1.1 4.2 -4.2 4.8 -2.1 0.4 -2.4 0.1 -1.8 -1.7z"/>
  <path d="M222.1 102.6 c-1.4 -1.6 -2.3 -7.6 -1.2 -7.6 2.1 0 6.2 4.4 5.9 6.4 -0.4 2.5 -3 3.2 -4.7 1.2z m1.8 -2.6 c-1.3 -1.6 -2.5 -2.8 -2.7 -2.5 -0.5 0.5 3.7 5.5 4.5 5.5 0.2 0 -0.6 -1.3 -1.8 -3z"/>
  <path d="M30.2 101.8 c-1.6 -1.6 -1.5 -5 0.1 -7.3 1.3 -1.7 1.5 -1.7 3 0.6 1 1.3 1.7 3.1 1.7 3.9 0 1.6 -1.8 4 -3 4 -0.3 0 -1.1 -0.5 -1.8 -1.2z"/>
  <path d="M241.5 100 c-0.7 -1.1 0.2 -3 1.4 -3 0.5 0 1.9 0.9 3.2 2 l2.4 1.9 -3.2 0.1 c-1.7 0 -3.5 -0.4 -3.8 -1z"/>
  <path d="M41.1 96.1 c-1.6 -1.6 -2.1 -3.4 -2.1 -7.1 0 -2.7 0.3 -5 0.8 -5 2.1 0 8.3 5.4 8.8 7.7 1.4 5.3 -3.7 8.2 -7.5 4.4z"/>
  <path d="M274.5 95.6 c-2.2 -1.6 -1.4 -4.6 1.4 -4.6 1 0 2.9 0.9 4.2 2 2.1 1.7 2.2 2.1 0.9 3 -2.1 1.4 -4.3 1.2 -6.5 -0.4z"/>
  <path d="M261.6 93.8 c-2 -2.8 -2.2 -8.8 -0.2 -8.8 0.7 0 2.5 1 4 2.1 2.1 1.6 2.6 2.8 2.4 5.3 -0.4 4 -3.8 4.8 -6.2 1.4z"/>
  <path d="M66.4 93.6 c-0.3 -0.9 -0.3 -3.3 0.1 -5.4 l0.7 -3.7 1.9 2.4 c2.4 2.9 2.2 7.4 -0.4 7.9 -0.9 0.2 -2 -0.4 -2.3 -1.2z"/>
  <path d="M152 94 c0 -1 4.8 -4.5 5.4 -3.9 0.2 0.2 0 1.4 -0.5 2.7 -0.8 2.2 -4.9 3.2 -4.9 1.2z"/>
  <path d="M89.1 92.2 c-1.1 -2.1 -0.2 -7 1.4 -7.4 0.5 -0.2 1.6 0.9 2.5 2.4 1.1 2.1 1.2 3.2 0.4 4.5 -1.5 2.5 -3.1 2.7 -4.3 0.5z"/>
  <path d="M181.4 91.5 c-1.6 -2.4 -1.6 -2.8 0.2 -6.6 l1.8 -4.1 2.3 2.6 c2.4 2.8 2.7 4.5 1.7 8.4 -0.9 3.2 -2.1 2.7 -3.3 -1.5 l-1 -3.8 0.5 3.8 c0.6 4.4 0.1 4.6 -2.2 1.2z"/>
  <path d="M172 91.5 c-2.2 -2.6 0.4 -4.3 3 -2 1.6 1.4 1.7 2 0.8 2.7 -1.8 1.1 -2.4 1 -3.8 -0.7z"/>
  <path d="M282.8 90.4 c-1.6 -0.8 -2.8 -2 -2.8 -2.7 0 -3.8 6.5 -5 9.5 -1.8 1.7 2 1.6 2 -2 1 -2 -0.6 -3.9 -0.8 -4.1 -0.6 -0.3 0.2 1.7 1 4.3 1.7 4.8 1.2 4.8 1.2 2.3 2.5 -3.1 1.8 -3.9 1.8 -7.2 -0.1z"/>
  <path d="M100 89.7 c0 -2.5 3.5 -6.1 5.3 -5.4 2 0.8 2.1 1.8 0.5 3.9 -1.9 2.3 -5.8 3.3 -5.8 1.5z"/>
  <path d="M162.2 89.7 c-0.5 -0.6 -1.3 -2.2 -1.6 -3.5 -0.7 -2.1 -0.6 -2.1 1.8 -1.1 1.4 0.7 2.6 2 2.6 3 0 2.3 -1.5 3.2 -2.8 1.6z"/>
  <path d="M224.3 90.3 c-1.9 -0.3 -3.3 -1 -3.3 -1.8 0 -1.4 5.5 -6.5 7.1 -6.5 2.2 0 4.9 2.2 4.9 4 0 1.7 -3.6 5.2 -5 4.8 -0.3 0 -2 -0.3 -3.7 -0.5z"/>
  <path d="M28 85.7 c0 -4.8 2.5 -8.1 5.7 -7.5 3.3 0.6 2.9 5.5 -0.7 8.8 -1.8 1.7 -3.6 3 -4.1 3 -0.5 0 -0.9 -2 -0.9 -4.3z"/>
  <path d="M80.5 86 c-0.7 -2.1 2.1 -8.4 3.4 -7.5 0.5 0.2 1.2 1.6 1.5 3 1.2 4.8 -3.4 9.1 -4.9 4.5z"/>
  <path d="M270.6 86.1 c-2.1 -2.4 -2 -7.4 0.2 -9.5 1.8 -1.5 2 -1.5 3.5 0.2 2.4 2.6 2.2 8.8 -0.2 10.1 -1.4 0.8 -2.2 0.6 -3.5 -0.8z"/>
  <path d="M46.4 82.8 l-2.9 -3.3 3.3 2.9 c3 2.8 3.7 3.6 2.9 3.6 -0.2 0 -1.6 -1.5 -3.3 -3.2z"/>
  <path d="M116.3 84.7 c-2.2 -2.7 -2.4 -3.7 -0.9 -3.7 1.8 0 4 3.6 2.7 4.4 -0.5 0.3 -1.3 0 -1.8 -0.7z"/>
  <path d="M191.5 83.6 c-1.3 -2 -1.4 -3.2 -0.5 -6.5 0.6 -2.3 1.5 -4.1 2 -4.1 1.3 0 5 5.5 5 7.5 0 2.5 -1.9 5.5 -3.5 5.5 -0.8 0 -2.2 -1.1 -3 -2.4z"/>
  <path d="M69.6 83.7 c-0.9 -0.7 -2.1 -3 -2.6 -5.2 -1.2 -5 -1.2 -5.7 -0.1 -7.4 1.5 -2.3 8.7 2.9 9.6 6.8 1.2 5.6 -2.6 8.9 -6.9 5.8z m5 -0.5 c-2.9 -4.7 -7.6 -11.2 -7.6 -10.5 0 1 6.9 11.3 7.6 11.3 0.3 0 0.3 -0.4 0 -0.8z"/>
  <path d="M128.3 83.4 c-1.4 -3.8 3 -6.3 8.4 -4.9 l2.6 0.6 -2.9 3 c-3 3.2 -7.1 3.8 -8.1 1.3z"/>
  <path d="M151.2 80.4 c-0.5 -0.9 -0.7 -2.5 -0.4 -3.6 0.6 -2.6 3.2 -0.4 3.2 2.8 0 2.8 -1.5 3.2 -2.8 0.8z"/>
  <path d="M254 75.5 c3.5 -3.6 6.7 -6.5 6.9 -6.5 0.3 0 -2.4 2.9 -5.9 6.5 -3.5 3.6 -6.7 6.5 -6.9 6.5 -0.3 0 2.4 -2.9 5.9 -6.5z"/>
  <path d="M223.2 78.9 c0.1 -1.2 0.9 -2.4 1.6 -2.7 0.9 -0.3 1.3 0.3 1 1.9 -0.1 1.2 -0.9 2.4 -1.6 2.7 -0.9 0.3 -1.3 -0.3 -1 -1.9z"/>
  <path d="M237 78 c-2.1 -2.1 -2.4 -3.7 -1.4 -6.4 1.5 -4 8.4 0.9 8.4 6 0 1.9 -0.5 2.4 -2.5 2.4 -1.4 0 -3.4 -0.9 -4.5 -2z m6 0.7 c0 -0.2 -1.6 -1.9 -3.7 -3.8 -3.7 -3.5 -3.7 -2.3 0 1.9 1.8 1.9 3.7 2.9 3.7 1.9z"/>
  <path d="M43.5 76 l-1.6 -3 3.1 0 c2.3 0 3.3 0.6 3.9 2.3 1.1 2.7 0.6 3.7 -1.9 3.7 -1.2 0 -2.6 -1.3 -3.5 -3z"/>
  <path d="M16.4 74.5 c-2.9 -2.6 -3.4 -3.4 -2.1 -3.5 1 0 1.6 -0.4 1.3 -0.9 -0.3 -0.5 1.5 -1.4 4.1 -2.1 3.9 -1.1 5 -1.1 7.2 0.1 2.9 1.6 4.4 5.6 1.8 4.6 -0.9 -0.3 -3.3 -0.8 -5.4 -1.1 -3.3 -0.5 -3.2 -0.4 1 0.8 6.1 1.8 6.7 2.4 4.3 4.2 -3.4 2.5 -7.9 1.7 -12.2 -2.1z"/>
  <path d="M259 76.5 c-2.2 -2.6 0.4 -4.3 3 -2 2 1.8 1.8 3.5 -0.4 3.5 -0.8 0 -1.9 -0.7 -2.6 -1.5z"/>
  <path d="M202.1 73.2 c-1 -1.9 -1 -7.2 0 -7.2 0.4 0 1.8 0.9 3.3 2.1 2.9 2.3 3.4 5.4 1 6.3 -2.5 0.9 -3.3 0.7 -4.3 -1.2z m2 -2.5 l-2.3 -2.2 1.7 2.8 c1 1.5 2 2.5 2.3 2.2 0.3 -0.3 -0.5 -1.6 -1.7 -2.8z"/>
  <path d="M96.7 73.3 c-0.9 -0.8 -0.9 -5.6 -0.1 -7.8 0.6 -1.4 0.8 -1.4 2.5 0.1 1.9 1.8 2.4 4 1.3 6.8 -0.6 1.6 -2.6 2.1 -3.7 0.9z"/>
  <path d="M227.2 71.9 c0.2 -1.2 1.3 -2.5 2.5 -3 1.8 -0.7 2.1 -0.5 1.6 0.9 -1.5 4.2 -4.7 5.8 -4.1 2.1z"/>
  <path d="M59 68.3 c0 -3.6 0.5 -5.5 1.8 -6.6 2.7 -2.5 5.1 -2.1 5.8 1 0.8 3.1 -0.1 4.8 -4.4 8.1 l-3.2 2.5 0 -5z"/>
  <path d="M33.5 70.1 c-0.7 -2.3 0.4 -7.1 1.6 -7.1 0.5 0 1.6 1.1 2.4 2.4 1.3 1.9 1.4 2.9 0.5 4.5 -1.4 2.6 -3.7 2.7 -4.5 0.2z"/>
  <path d="M108 71.3 c0 -0.6 -1.9 -3.2 -4.2 -5.9 -3.7 -4.1 -3.9 -4.5 -1.2 -2.6 3.3 2.5 7 8 6 8.9 -0.3 0.4 -0.6 0.2 -0.6 -0.4z"/>
  <path d="M113 70.4 c0 -2.7 2 -5.4 4 -5.4 4.2 0 3.4 4.3 -1.1 5.9 -2.4 0.8 -2.9 0.7 -2.9 -0.5z"/>
  <path d="M137.2 71.1 c-1.9 -1.2 -1.1 -4.5 1.1 -4.9 1 -0.2 3.1 -0.1 4.5 0.3 l2.7 0.7 -2.8 2.4 c-3.1 2.6 -3.6 2.8 -5.5 1.5z"/>
  <path d="M179.5 67.5 c-2.6 -2.5 -3.1 -7 -1.6 -12.5 0.9 -3.2 1.7 -1.9 4.7 7.4 1.3 3.9 2.3 6.4 2.4 5.5 0 -0.9 -0.9 -4.2 -2 -7.4 -1.1 -3.2 -1.8 -6 -1.6 -6.2 0.2 -0.2 1.7 1.2 3.5 3.2 3.7 4.3 4.3 9.8 1.2 11.5 -2.9 1.5 -3.9 1.3 -6.6 -1.5z"/>
  <path d="M253 67.9 c-0.9 -1.6 -0.9 -3.2 0 -6.5 0.7 -2.4 1.5 -4.4 1.9 -4.4 0.3 0 1.7 1.6 3 3.6 2 2.9 2.3 4 1.5 6.2 -1.2 3.5 -4.8 4.1 -6.4 1.1z"/>
  <path d="M268 66.6 c-1 -1.3 -0.9 -1.7 0.5 -2.2 1.9 -0.8 4.5 0.4 4.8 2.1 0.3 1.7 -3.9 1.7 -5.3 0.1z"/>
  <path d="M81.2 65.8 c-1.6 -1.6 -1.5 -3.9 0.4 -6.6 2.1 -3 3.1 -2.8 3.9 0.9 0.9 3.8 -2.2 7.8 -4.3 5.7z"/>
  <path d="M41.4 64.6 c-1.9 -1.5 -1.9 -1.5 0.1 -3 1.1 -0.8 3 -1.6 4.3 -1.6 3 0 4.1 2.9 1.7 4.6 -2.4 1.8 -3.6 1.8 -6.1 0z"/>
  <path d="M224.5 65 c-0.7 -1.2 0.2 -3 1.6 -3 0.5 0 1.9 0.9 3.1 2 l2.2 2 -3.2 0 c-1.7 0 -3.4 -0.4 -3.7 -1z"/>
  <path d="M166.3 64.3 c-1.4 -0.5 -1.7 -5 -0.7 -7.8 0.6 -1.4 0.8 -1.4 2.5 0.1 3.2 2.9 1.7 9 -1.8 7.7z"/>
  <path d="M107.2 62.8 c-2.6 -2.6 -0.8 -6.4 4.6 -9.2 l3.2 -1.7 0 4.1 c0 5.9 -4.6 10 -7.8 6.8z"/>
  <path d="M235.4 61.8 c-5.1 -5.9 -5.1 -5.8 0.5 -5.8 4.3 0 5.3 0.4 6.7 2.5 1.3 2 1.4 2.8 0.4 4 -1.8 2.2 -5.4 1.8 -7.6 -0.7z"/>
  <path d="M71.6 58.8 c-2 -2.9 -2 -5.3 0.2 -10.2 l1.7 -3.9 2.8 4 c4.1 5.9 3.3 12.3 -1.4 12.3 -1 0 -2.5 -1 -3.3 -2.2z"/>
  <path d="M124.4 59.5 c-0.8 -2 1 -4.1 4.8 -5.4 2.9 -1 3 -1 2.3 1.7 -0.4 1.5 -1.1 3.3 -1.7 3.9 -1.4 1.8 -4.7 1.6 -5.4 -0.2z"/>
  <path d="M143.5 60 c-0.4 -0.6 -1 -2.4 -1.5 -4 -1 -3.5 0.2 -3.9 3.8 -1.4 2.8 2 3 6.4 0.3 6.4 -1.1 0 -2.3 -0.5 -2.6 -1z"/>
  <path d="M50.6 58.1 c-2.5 -1.7 -2.6 -2 -1 -2.4 1.3 -0.3 0.9 -0.5 -1.1 -0.7 l-3 -0.2 4 -1.9 c5.2 -2.4 7 -2.4 9.8 0.4 l2.2 2.2 -3.5 0.6 c-3 0.6 -3.1 0.7 -0.7 0.8 3 0.1 3.6 1.5 1.1 2.5 -2.7 1 -4.8 0.7 -7.8 -1.3z"/>
  <path d="M208.3 58.8 c-1.6 -2.1 -2.2 -6.8 -0.8 -6.8 1.9 0 4.7 3.7 4.3 5.6 -0.4 2.2 -2.2 2.8 -3.5 1.2z"/>
  <path d="M272 56.8 c1.9 -1.7 2.8 -2.7 2 -2.3 -0.8 0.5 -2.3 1.5 -3.2 2.3 -2.1 1.7 -2.4 0.3 -0.8 -2.9 0.7 -1.2 2.1 -1.9 4.1 -1.9 1.8 0 2.8 0.4 2.4 1 -0.9 1.4 0.8 1.2 2.4 -0.2 1.1 -1.1 1.2 -0.8 0.6 1.2 -1 3.6 -4.2 6 -7.9 6 l-3.1 -0.1 3.5 -3.1z"/>
  <path d="M220.2 56.5 c-1.3 -2.8 -0.5 -3.2 2.3 -1.2 1 0.8 1.5 1.9 1.1 2.5 -1.1 1.8 -2.2 1.4 -3.4 -1.3z"/>
  <path d="M99.6 56.4 c-0.9 -2.4 -0.7 -3.8 0.8 -5.9 1.3 -1.8 1.4 -1.7 3 0.8 2.1 3.1 1.3 6.7 -1.4 6.7 -1 0 -2.1 -0.7 -2.4 -1.6z"/>
  <path d="M90.6 54.8 c-0.9 -1.3 -1.5 -3.8 -1.3 -5.5 l0.2 -3.2 3 2.3 c2.1 1.7 3 3.2 3 5.2 0 3.7 -2.8 4.4 -4.9 1.2z m1.4 -3 c-2.3 -3.5 -2.3 -3.1 -0.1 1.5 0.8 1.5 1.6 2.5 1.9 2.2 0.2 -0.2 -0.5 -1.9 -1.8 -3.7z"/>
  <path d="M192.3 55.5 c-1.9 -1.3 -4.9 -10.3 -3.8 -11.4 0.8 -0.7 7 2 9.2 4.1 5.5 5.1 0.7 11.6 -5.4 7.3z"/>
  <path d="M63.3 55.3 c-1.4 -0.5 -1.7 -4.3 -0.7 -8 l0.6 -2.3 1.9 2.4 c3 3.9 1.8 9.2 -1.8 7.9z"/>
  <path d="M225.6 53.4 c-0.7 -1.9 3.1 -8.7 4.5 -7.8 1.3 0.8 1.1 6.8 -0.3 8.2 -1.7 1.7 -3.5 1.5 -4.2 -0.4z"/>
  <path d="M263.4 54.2 c-2 -1.3 -3.1 -4.6 -2.4 -7.2 l0.6 -2.5 1.2 3 c1.1 2.9 1.1 2.9 0.5 -0.9 -0.5 -3.6 -0.4 -3.7 1.5 -2.7 2.3 1.2 3.2 3.2 3.2 7 0 3.8 -1.1 4.6 -2.7 1.9 l-1.4 -2.3 0.6 2.3 c0.7 2.4 0.6 2.5 -1.1 1.4z"/>
  <path d="M246 51.5 c0 -0.2 1.8 -2.8 4 -5.7 2.2 -2.9 4 -5.7 4 -6.2 0 -0.4 -2.1 2 -4.6 5.4 -3.5 4.8 -4.8 5.9 -5.5 4.9 -2.5 -4 0.8 -9.9 6.8 -12.4 2 -0.8 3.6 -1.5 3.7 -1.5 0 0 0.2 2 0.4 4.5 0.3 4.8 -1.7 9.9 -4.3 10.9 -2 0.7 -4.5 0.8 -4.5 0.1z"/>
  <path d="M121.4 49.5 c-1 -2.6 1.6 -4.5 5.9 -4.5 l4.1 0 -2.9 3 c-3.1 3.3 -6.2 3.9 -7.1 1.5z"/>
  <path d="M163.6 47.4 c-0.9 -0.8 -1.6 -2.2 -1.6 -3.1 0 -1.2 0.7 -1.4 3.2 -0.9 3.8 0.8 5.1 2.4 3.3 4.3 -1.8 1.7 -3 1.7 -4.9 -0.3z"/>
  <path d="M180.8 45.9 c-1.9 -1.1 -2.4 -3.4 -0.9 -4.4 1.2 -0.7 4.1 2.2 4.1 4.1 0 1.6 -0.8 1.7 -3.2 0.3z"/>
  <path d="M99 45.5 c0 -1.5 2.5 -5.5 3.7 -5.9 3.6 -1.4 4.5 2.5 1.1 4.8 -2.1 1.5 -4.8 2.1 -4.8 1.1z"/>
  <path d="M153.6 41 c0.6 -5.6 1 -6.7 1.9 -5.8 0.3 0.3 -0.1 2.9 -1 5.9 l-1.5 5.4 0.6 -5.5z"/>
  <path d="M207.2 44.8 c-2 -2 -1.4 -3 1.5 -2.6 3.2 0.4 4.6 3.8 1.6 3.8 -1.1 0 -2.4 -0.5 -3.1 -1.2z"/>
  <path d="M234.3 45 c-2.7 -1.1 -3.9 -3.3 -4.8 -8.7 -0.5 -3.4 -0.4 -4.3 0.8 -4.3 2.2 0 8 4.3 9.6 7.2 1.4 2.4 1.4 2.8 -0.3 4.7 -2.1 2.3 -2.2 2.3 -5.3 1.1z"/>
  <path d="M72.8 40.9 c-3 -1.7 -4 -4.6 -2.2 -6.3 2.2 -2.2 3.8 -2 7.3 1 4.5 3.8 3.8 4.7 -2.1 2.4 -2.8 -1.1 -5.3 -1.8 -5.6 -1.6 -0.2 0.2 1.8 1.2 4.3 2.2 3.2 1.2 4.2 2 3.3 2.5 -1.7 1.1 -2.9 1.1 -5 -0.2z"/>
  <path d="M89.7 40.8 c-1.8 -1.3 -1.8 -1.5 0.1 -3.8 2.2 -2.7 7.8 -3.2 9.2 -0.9 2.4 3.7 -5.3 7.6 -9.3 4.7z m6.2 -1.9 c4.8 -1.7 3.2 -2 -1.9 -0.4 -2.5 0.7 -3.8 1.4 -2.9 1.4 0.9 0.1 3 -0.4 4.8 -1z"/>
  <path d="M169.7 41.3 c-0.8 -1.2 0.4 -2.8 2.6 -3.6 1.5 -0.6 1.8 -0.3 1.5 1.5 -0.3 2.3 -3.1 3.7 -4.1 2.1z"/>
  <path d="M215 38.5 c-2 -2.4 -0.4 -5.8 4 -8.3 l4 -2.3 0 3.9 c0 2.1 -0.6 4.5 -1.2 5.4 -1.9 2.4 -5.3 3.1 -6.8 1.3z"/>
  <path d="M119.7 38.3 c-1.3 -1.2 -0.7 -2.3 2.3 -3.8 2.7 -1.4 2.9 -1.4 2.3 0.2 -1.3 3.6 -3.2 5.1 -4.6 3.6z"/>
  <path d="M162.7 37.5 c-1 -0.9 -1.7 -3.2 -1.7 -5.2 0 -3.4 0.1 -3.5 2.2 -2.1 2.9 1.9 4 5.2 2.4 7.3 -1.2 1.6 -1.3 1.6 -2.9 0z"/>
  <path d="M200.7 38.3 c-1.4 -1.3 -0.7 -3.3 1.1 -3.3 1.9 0 4.2 1.8 4.2 3.2 0 1 -4.4 1.1 -5.3 0.1z"/>
  <path d="M211.1 36.2 c-0.7 -1.6 -2.5 -4.3 -4.1 -6 -1.6 -1.8 -2.6 -3.2 -2.3 -3.2 0.3 0 0 -0.7 -0.7 -1.5 -0.7 -0.9 -1.1 -1.8 -0.8 -2.1 0.3 -0.3 1.7 0.9 3.1 2.6 1.4 1.6 2.8 3 3.1 3 0.2 0 0.7 -1.5 0.9 -3.2 0.4 -3.1 0.4 -3 0.6 0.7 0.1 2.2 0.6 5.8 1.1 8 1.1 4.8 0.7 5.6 -0.9 1.7z"/>
  <path d="M84 34.5 c0 -0.8 0.2 -1.5 0.4 -1.5 0.2 0 1.1 -0.3 1.9 -0.6 1.2 -0.4 1.4 0 1 1.5 -0.6 2.4 -3.3 2.9 -3.3 0.6z"/>
  <path d="M148.3 34.4 c-0.3 -0.9 0.3 -2.5 1.6 -3.7 l2.1 -2.1 0 3.1 c0 3.4 -2.7 5.4 -3.7 2.7z"/>
  <path d="M194.2 34.8 c-0.6 -0.7 -1.4 -2.6 -1.8 -4.1 l-0.7 -2.9 3.2 1.7 c2.3 1.2 3.1 2.2 2.9 3.7 -0.4 2.6 -2.1 3.3 -3.6 1.6z"/>
  <path d="M104.5 33 c-0.7 -1.2 0.2 -3 1.6 -3 1.2 0 1.2 2.7 0 3.5 -0.5 0.3 -1.2 0.1 -1.6 -0.5z"/>
  <path d="M169 28.9 c0 -2.2 2.2 -4.9 4 -4.9 2.9 0 3.3 1.7 1 4 -2.1 2.1 -5 2.7 -5 0.9z"/>
  <path d="M97.2 27.8 c-1.8 -1.8 -1.5 -3.2 1.1 -5.6 3.2 -3 3.7 -2.8 3.7 1.3 0 3.9 -2.8 6.3 -4.8 4.3z"/>
  <path d="M127.4 27.6 c-0.7 -1.9 1.1 -5.3 3.6 -6.6 1.8 -1 2 -0.7 2 2.3 0 4.8 -4.2 8 -5.6 4.3z"/>
  <path d="M179.8 27.9 c-2.2 -1.2 -2.4 -4.9 -0.3 -4.9 1.7 0 2.8 2.1 2.3 4.4 -0.2 1.1 -0.7 1.2 -2 0.5z"/>
  <path d="M83.6 26.8 c-1.8 -1 -1.8 -1.1 0.5 -2.4 3.1 -1.7 6.6 -1.8 7.2 0 1.2 3.1 -3.8 4.7 -7.7 2.4z"/>
  <path d="M190.1 26.7 c0.8 -1 3.3 -2 5.5 -2.2 l3.9 -0.5 -3.9 1 c-2.2 0.6 -4.7 1.6 -5.5 2.2 -1.5 1.1 -1.5 1 0 -0.5z"/>
  <path d="M76.2 23.2 c-1.5 -4.8 -1.5 -8.2 -0.2 -8.2 2.4 0 4 7.9 2.2 10.8 -0.6 0.9 -1.2 0 -2 -2.6z"/>
  <path d="M114 25.7 c0 -0.8 0.7 -2 1.5 -2.7 1.2 -1 1.5 -1 1.5 0.3 0 0.8 -0.7 2 -1.5 2.7 -1.2 1 -1.5 1 -1.5 -0.3z"/>
  <path d="M73.6 24.5 c-1.7 -1.7 -2 -4.2 -0.9 -7.1 0.4 -1.2 1 -0.3 1.9 3.2 1.4 5.6 1.3 6.1 -1 3.9z"/>
  <path d="M185 24.5 c0 -1.1 0.5 -2.7 1 -3.5 0.7 -1.2 1.2 -1.2 2.2 -0.2 1 1 0.8 1.7 -1 3.4 -2.1 2.2 -2.2 2.2 -2.2 0.3z"/>
  <path d="M215.8 24.9 c-2.5 -1.4 -2.2 -3.7 0.5 -4.2 l2.2 -0.4 -2.3 -0.2 c-2.9 -0.1 -2.4 -2.1 0.9 -4 3.2 -1.8 6.5 -1 10.9 2.8 l3.5 2.9 -4.5 2.1 c-4.9 2.3 -8.6 2.6 -11.2 1z"/>
  <path d="M140 23.2 c0 -1.1 1.1 -2.4 2.5 -3 2.8 -1.3 3.2 -0.4 1.5 2.9 -1.3 2.4 -4 2.5 -4 0.1z"/>
  <path d="M121.7 22.3 c-1.4 -1.3 -0.6 -4 1.6 -6.1 3.1 -3 3.7 -2.8 3.7 1.1 0 4.4 -3.1 7.3 -5.3 5z"/>
  <path d="M91 19.1 c-1.6 -3 -1.2 -5.6 1.1 -7.7 2.3 -2 2.2 -2.6 0.3 6.1 -0.4 1.6 -0.3 1.7 0.4 0.5 0.5 -0.8 1.3 -3.3 1.7 -5.5 0.6 -3.8 0.8 -3.9 2.2 -2 2.3 3.2 0.1 10.5 -3.3 10.5 -0.7 0 -1.8 -0.9 -2.4 -1.9z"/>
  <path d="M160.7 18.4 c-1 -1 -0.9 -7.4 0.1 -7.4 1.7 0 4.4 3.9 4 5.7 -0.3 1.8 -2.9 2.9 -4.1 1.7z"/>
  <path d="M111 18 c-0.1 -0.3 -0.4 -1.5 -0.5 -2.8 -0.1 -1.5 0.1 -2 0.7 -1.4 0.6 0.6 0.8 1.8 0.5 2.8 -0.3 1.1 -0.6 1.7 -0.7 1.4z"/>
  <path d="M196.5 17 c-0.8 -1.3 0.3 -5 1.6 -5 1.2 0 1.2 4.7 0 5.5 -0.5 0.3 -1.2 0.1 -1.6 -0.5z"/>
  <path d="M182 15.5 c-1 -1.2 -1 -1.8 0 -3 1.6 -2 4 -1.9 6.9 0.2 2.3 1.5 2.3 1.7 0.6 3 -2.5 1.7 -6 1.7 -7.5 -0.2z"/>
  <path d="M146 13.5 c-0.7 -0.9 -1 -1.8 -0.7 -2.1 1 -1.1 3.7 0.5 3.7 2.1 0 1.9 -1.4 1.9 -3 0z"/>
  <path d="M209.1 13.6 c-2 -2.4 -0.9 -3.9 1.4 -2.2 1.5 1.1 1.7 1.8 0.9 2.6 -0.8 0.8 -1.4 0.7 -2.3 -0.4z"/>
  <path d="M168 11.3 c0 -1.2 0.5 -2.3 1.1 -2.3 0.5 0 0.7 0.5 0.4 1 -0.3 0.6 -0.1 1 0.4 1 0.6 0 1.1 0.6 1.1 1.3 0 0.8 -0.7 1.4 -1.5 1.4 -0.9 0 -1.5 -1 -1.5 -2.4z"/>
  <path d="M114 10.5 c-1 -1.3 -1 -1.9 0.5 -3.5 2 -2.2 4.1 -2.5 6.5 -1 1.2 0.7 1.1 1.3 -1 3.4 -2.7 3 -4.2 3.2 -6 1.1z"/>
  <path d="M175.5 11 c-0.4 -0.6 -0.1 -1.8 0.6 -2.6 1.1 -1.4 1.3 -1.4 2.1 0 1.5 2.6 -1.2 5.1 -2.7 2.6z"/>
  <path d="M215.4 9.5 c-0.4 -0.9 0 -2.4 1 -3.3 1.5 -1.5 1.6 -1.4 1.6 1 0 3.2 -1.7 4.6 -2.6 2.3z"/>
  <path d="M107.6 9.1 c-0.8 -1.3 0.4 -4.2 1.5 -3.5 1.2 0.7 1.2 4.4 0 4.4 -0.6 0 -1.2 -0.4 -1.5 -0.9z"/>
  <path d="M149.4 6.5 c-0.8 -2 0.3 -4.8 1.6 -4 1.3 0.8 1.3 5.5 0 5.5 -0.6 0 -1.3 -0.7 -1.6 -1.5z"/>
  <path d="M159.5 5.1 c-1.1 -3.6 0.4 -5.1 5.1 -5.1 2.4 0 4.4 0.3 4.4 0.6 0 1.1 -2.3 4.9 -3.4 5.6 -2.1 1.4 -5.5 0.8 -6.1 -1.1z"/>
  <path d="M140 5.1 c0 -1.6 2.7 -3.1 4.5 -2.5 1.7 0.7 1.7 0.8 -0.1 2.1 -2 1.5 -4.4 1.7 -4.4 0.4z"/>
  <path d="M133.2 3.8 c-2.1 -2.1 -1.3 -3.8 1.8 -3.8 2.5 0 3 0.4 3 2.5 0 2.7 -2.6 3.5 -4.8 1.3z"/>
 </g>
</svg>