<?xml version="1.0" standalone="no"?>
<!DOCTYPE svg PUBLIC "-//W3C//DTD SVG 1.0//EN" "http://www.w3.org/TR/2001/REC-SVG-20010904/DTD/svg10.dtd">
<svg xmlns="http://www.w3.org/2000/svg" xmlns:xlink="http://www.w3.org/1999/xlink" id="body_1" width="225" height="256">

<g transform="matrix(0.5 0 0 0.5 0 0)">
	<g transform="matrix(1 0 0 1 0 0)">
	</g>
    <path transform="matrix(1 0 0 1 0 0)"  d="M0 0L1024 0L1024 768L0 768L0 0z" stroke="none" fill="none" />
	<g transform="matrix(1 0 0 1 0 0)">
	</g>
    <path transform="matrix(1 0 0 1 0 0)"  d="M380.0005 262.862L380.0005 215C 380.0005 145.178 333.5895 85.99899 270.0005 66.67L270.0005 66.67L270.0005 45C 270.0005 20.187 249.8135 0 225.0005 0C 200.1875 0 180.0005 20.187 180.0005 45L180.0005 45L180.0005 66.67C 116.4105 85.999 70.00049 145.177 70.00049 215L70.00049 215L70.00049 262.862C 70.00049 324.194 46.62249 382.35 4.173485 426.618C 0.01348495 430.956 -1.155515 437.357 1.202485 442.885C 3.560485 448.413 8.990485 452 15.00049 452L15.00049 452L151.5095 452C 158.4775 486.192 188.7815 512 225.0005 512C 261.2205 512 291.5225 486.192 298.4915 452L298.4915 452L435.0005 452C 441.0105 452 446.4395 448.413 448.7975 442.885C 451.1555 437.357 449.9865 430.956 445.8275 426.618C 403.3785 382.35 380.0005 324.193 380.0005 262.862zM210.0005 45C 210.0005 36.729 216.7295 30 225.0005 30C 233.2715 30 240.0005 36.729 240.0005 45L240.0005 45L240.0005 60.728C 235.0635 60.252 230.0605 60 225.0005 60C 219.9405 60 214.9375 60.252 210.0005 60.728zM225.0005 482C 205.4455 482 188.7725 469.459 182.5805 452L182.5805 452L267.4205 452C 261.2285 469.459 244.5555 482 225.0005 482zM47.33049 422C 81.49149 376.208 100.0005 320.792 100.0005 262.862L100.0005 262.862L100.0005 215C 100.0005 146.075 156.0755 90 225.0005 90C 293.9255 90 350.0005 146.075 350.0005 215L350.0005 215L350.0005 262.862C 350.0005 320.792 368.5095 376.208 402.6715 422z" stroke="none" fill="#000000" fill-rule="nonzero" />
	<g transform="matrix(1 0 0 1 0 0)">
	</g>
    <path transform="matrix(1 0 0 1 0 0)"  d="M420.0005 215C 420.0005 223.284 426.7165 230 435.0005 230C 443.2845 230 450.0005 223.284 450.0005 215C 450.0005 154.9 426.5965 98.39702 384.0995 55.90001C 378.2425 50.04301 368.7445 50.04201 362.8865 55.90001C 357.0285 61.75801 357.0285 71.255 362.8865 77.11301C 399.7175 113.944 420.0005 162.913 420.0005 215z" stroke="none" fill="#000000" fill-rule="nonzero" />
	<g transform="matrix(1 0 0 1 0 0)">
	</g>
    <path transform="matrix(1 0 0 1 0 0)"  d="M15.0005 230C 23.2845 230 30.0005 223.284 30.0005 215C 30.0005 162.914 50.2845 113.945 87.11449 77.11401C 92.9725 71.25601 92.9725 61.75901 87.11449 55.90102C 81.25749 50.04301 71.75949 50.04301 65.9015 55.90102C 23.4045 98.39802 0.0004959106 154.9 0.0004959106 215C 0.0004959106 223.284 6.716496 230 15.0005 230z" stroke="none" fill="#000000" fill-rule="nonzero" />
</g>
</svg>