<svg width="48" height="48" viewBox="0 0 48 48" fill="none" xmlns="http://www.w3.org/2000/svg">
<path fill-rule="evenodd" clip-rule="evenodd" d="M3.42857 23.1429C3.42857 17.1881 6.13404 11.9028 10.3139 8.59104L7.86782 6C7.22507 6.53571 6.61007 7.11386 6.02529 7.73336C4.13721 9.73361 2.65436 12.0638 1.61807 14.6592C0.544393 17.3483 0 20.2024 0 23.1429C0 26.0832 0.544393 28.9376 1.61807 31.6265C2.65436 34.2222 4.13721 36.5522 6.02529 38.5525C6.61007 39.1719 7.22507 39.75 7.86782 40.2858L10.3138 37.6948C6.13404 34.3829 3.42857 29.0976 3.42857 23.1429ZM11.9996 23.1429C11.9996 19.1893 13.9874 15.7278 16.9618 13.8178L14.4824 11.1915C13.8117 11.6853 13.1774 12.2451 12.5877 12.8697C9.99755 15.6139 8.57105 19.2623 8.57105 23.1429C8.57105 27.0235 9.99755 30.6719 12.5878 33.4161C13.1776 34.0406 13.8118 34.6005 14.4826 35.0942L16.9619 32.468C13.9874 30.558 11.9996 27.0965 11.9996 23.1429ZM24.0002 29.9998C27.7873 29.9998 30.8573 26.9297 30.8573 23.1426C30.8573 19.3555 27.7873 16.2855 24.0002 16.2855C20.2131 16.2855 17.143 19.3555 17.143 23.1426C17.143 26.9297 20.2131 29.9998 24.0002 29.9998ZM31.038 32.468C34.0124 30.5581 36.0002 27.0965 36.0002 23.143C36.0002 19.1894 34.0124 15.7278 31.0379 13.818L33.5173 11.1917C34.188 11.6854 34.8223 12.2452 35.412 12.8699C38.0023 15.6139 39.4288 19.2624 39.4288 23.143C39.4288 27.0236 38.0023 30.672 35.4121 33.4161C34.8224 34.0407 34.1881 34.6006 33.5174 35.0942L31.038 32.468ZM37.6864 37.6947C41.8662 34.3829 44.5717 29.0976 44.5717 23.1429C44.5717 17.1881 41.8662 11.9028 37.6863 8.59104L40.1323 6C40.7752 6.53571 41.3903 7.11386 41.9749 7.73336C43.863 9.73361 45.3459 12.0636 46.3822 14.6592C47.4557 17.3483 48.0002 20.2024 48.0002 23.1429C48.0002 26.0832 47.4557 28.9376 46.3822 31.6264C45.3459 34.2221 43.863 36.5521 41.9749 38.5524C41.3902 39.1717 40.7752 39.714 40.1323 40.2498L37.6864 37.6947Z" fill="#1f2937"/>
<mask id="mask0" mask-type="alpha" maskUnits="userSpaceOnUse" x="0" y="6" width="49" height="35">
<path fill-rule="evenodd" clip-rule="evenodd" d="M3.42857 23.1429C3.42857 17.1881 6.13404 11.9028 10.3139 8.59104L7.86782 6C7.22507 6.53571 6.61007 7.11386 6.02529 7.73336C4.13721 9.73361 2.65436 12.0638 1.61807 14.6592C0.544393 17.3483 0 20.2024 0 23.1429C0 26.0832 0.544393 28.9376 1.61807 31.6265C2.65436 34.2222 4.13721 36.5522 6.02529 38.5525C6.61007 39.1719 7.22507 39.75 7.86782 40.2858L10.3138 37.6948C6.13404 34.3829 3.42857 29.0976 3.42857 23.1429ZM11.9996 23.1429C11.9996 19.1893 13.9874 15.7278 16.9618 13.8178L14.4824 11.1915C13.8117 11.6853 13.1774 12.2451 12.5877 12.8697C9.99755 15.6139 8.57105 19.2623 8.57105 23.1429C8.57105 27.0235 9.99755 30.6719 12.5878 33.4161C13.1776 34.0406 13.8118 34.6005 14.4826 35.0942L16.9619 32.468C13.9874 30.558 11.9996 27.0965 11.9996 23.1429ZM24.0002 29.9998C27.7873 29.9998 30.8573 26.9297 30.8573 23.1426C30.8573 19.3555 27.7873 16.2855 24.0002 16.2855C20.2131 16.2855 17.143 19.3555 17.143 23.1426C17.143 26.9297 20.2131 29.9998 24.0002 29.9998ZM31.038 32.468C34.0124 30.5581 36.0002 27.0965 36.0002 23.143C36.0002 19.1894 34.0124 15.7278 31.0379 13.818L33.5173 11.1917C34.188 11.6854 34.8223 12.2452 35.412 12.8699C38.0023 15.6139 39.4288 19.2624 39.4288 23.143C39.4288 27.0236 38.0023 30.672 35.4121 33.4161C34.8224 34.0407 34.1881 34.6006 33.5174 35.0942L31.038 32.468ZM37.6864 37.6947C41.8662 34.3829 44.5717 29.0976 44.5717 23.1429C44.5717 17.1881 41.8662 11.9028 37.6863 8.59104L40.1323 6C40.7752 6.53571 41.3903 7.11386 41.9749 7.73336C43.863 9.73361 45.3459 12.0636 46.3822 14.6592C47.4557 17.3483 48.0002 20.2024 48.0002 23.1429C48.0002 26.0832 47.4557 28.9376 46.3822 31.6264C45.3459 34.2221 43.863 36.5521 41.9749 38.5524C41.3902 39.1717 40.7752 39.714 40.1323 40.2498L37.6864 37.6947Z" fill="white"/>
</mask>
<g mask="url(#mask0)">
<rect width="48" height="48" fill="#1f2937"/>
</g>
</svg>
