<?xml version="1.0" encoding="UTF-8"?>
<svg xmlns="http://www.w3.org/2000/svg" xmlns:xlink="http://www.w3.org/1999/xlink" width="256pt" height="185pt" viewBox="0 0 256 185" version="1.1">
<g id="surface1">
<path style=" stroke:none;fill-rule:nonzero;fill:rgb(0%,0%,0%);fill-opacity:1;" d="M 218.53125 2.230469 C 215.605469 -0.6875 210.855469 -0.6875 207.925781 2.230469 C 204.996094 5.152344 204.996094 9.890625 207.925781 12.808594 C 229.253906 34.078125 241 62.378906 241 92.496094 C 241 122.613281 229.253906 150.914062 207.925781 172.183594 C 204.996094 175.105469 204.996094 179.84375 207.925781 182.761719 C 210.859375 185.6875 215.609375 185.679688 218.53125 182.761719 C 242.695312 158.667969 256 126.609375 256 92.496094 C 256 58.382812 242.695312 26.328125 218.53125 2.230469 Z M 218.53125 2.230469 "/>
<path style=" stroke:none;fill-rule:nonzero;fill:rgb(0%,0%,0%);fill-opacity:1;" d="M 195.824219 24.878906 C 192.894531 21.960938 188.144531 21.960938 185.214844 24.878906 C 182.289062 27.800781 182.289062 32.535156 185.214844 35.457031 C 200.484375 50.683594 208.890625 70.941406 208.890625 92.496094 C 208.890625 114.054688 200.484375 134.3125 185.214844 149.535156 C 182.289062 152.457031 182.289062 157.195312 185.214844 160.113281 C 188.144531 163.035156 192.894531 163.035156 195.824219 160.113281 C 213.921875 142.066406 223.890625 118.050781 223.890625 92.496094 C 223.890625 66.941406 213.921875 42.929688 195.824219 24.878906 Z M 195.824219 24.878906 "/>
<path style=" stroke:none;fill-rule:nonzero;fill:rgb(0%,0%,0%);fill-opacity:1;" d="M 173.097656 47.546875 C 170.167969 44.625 165.417969 44.625 162.488281 47.546875 C 159.5625 50.464844 159.5625 55.203125 162.488281 58.121094 C 171.691406 67.296875 176.757812 79.503906 176.757812 92.496094 C 176.757812 105.488281 171.691406 117.695312 162.488281 126.871094 C 159.5625 129.792969 159.5625 134.527344 162.488281 137.449219 C 165.417969 140.371094 170.167969 140.371094 173.097656 137.449219 C 185.128906 125.449219 191.757812 109.484375 191.757812 92.496094 C 191.757812 75.507812 185.128906 59.546875 173.097656 47.546875 Z M 173.097656 47.546875 "/>
<path style=" stroke:none;fill-rule:nonzero;fill:rgb(0%,0%,0%);fill-opacity:1;" d="M 15 92.496094 C 15 62.378906 26.746094 34.078125 48.074219 12.808594 C 51.003906 9.890625 51.003906 5.152344 48.074219 2.230469 C 45.144531 -0.6875 40.398438 -0.6875 37.46875 2.230469 C 13.304688 26.328125 0 58.382812 0 92.496094 C 0 126.609375 13.304688 158.667969 37.46875 182.761719 C 40.394531 185.683594 45.144531 185.683594 48.074219 182.761719 C 51.003906 179.84375 51.003906 175.105469 48.074219 172.183594 C 26.746094 150.914062 15 122.613281 15 92.496094 Z M 15 92.496094 "/>
<path style=" stroke:none;fill-rule:nonzero;fill:rgb(0%,0%,0%);fill-opacity:1;" d="M 47.109375 92.496094 C 47.109375 70.941406 55.515625 50.683594 70.785156 35.457031 C 73.714844 32.535156 73.714844 27.800781 70.785156 24.878906 C 67.855469 21.960938 63.105469 21.960938 60.175781 24.878906 C 42.078125 42.929688 32.109375 66.945312 32.109375 92.496094 C 32.109375 118.050781 42.078125 142.066406 60.175781 160.117188 C 63.109375 163.039062 67.859375 163.03125 70.785156 160.117188 C 73.710938 157.195312 73.710938 152.457031 70.785156 149.539062 C 55.515625 134.3125 47.109375 114.054688 47.109375 92.496094 Z M 47.109375 92.496094 "/>
<path style=" stroke:none;fill-rule:nonzero;fill:rgb(0%,0%,0%);fill-opacity:1;" d="M 93.511719 47.546875 C 90.582031 44.625 85.832031 44.625 82.902344 47.546875 C 70.871094 59.546875 64.242188 75.511719 64.242188 92.496094 C 64.242188 109.484375 70.871094 125.449219 82.902344 137.449219 C 85.835938 140.375 90.585938 140.367188 93.511719 137.449219 C 96.441406 134.53125 96.4375 129.792969 93.511719 126.871094 C 84.308594 117.699219 79.242188 105.492188 79.242188 92.5 C 79.242188 79.507812 84.308594 67.296875 93.511719 58.125 C 96.4375 55.203125 96.4375 50.464844 93.511719 47.546875 Z M 93.511719 47.546875 "/>
<path style=" stroke:none;fill-rule:nonzero;fill:rgb(0%,0%,0%);fill-opacity:1;" d="M 128 60.984375 C 110.574219 60.984375 96.398438 75.121094 96.398438 92.496094 C 96.398438 109.875 110.574219 124.011719 128 124.011719 C 145.425781 124.011719 159.601562 109.875 159.601562 92.496094 C 159.601562 75.121094 145.425781 60.984375 128 60.984375 Z M 128 60.984375 "/>
</g>
</svg>
