<?xml version="1.0" encoding="UTF-8"?>
<svg xmlns="http://www.w3.org/2000/svg" xmlns:xlink="http://www.w3.org/1999/xlink" width="256pt" height="256pt" viewBox="0 0 256 256" version="1.1">
<g id="surface1">
<path style=" stroke:none;fill-rule:nonzero;fill:rgb(0%,0%,0%);fill-opacity:1;" d="M 136.03125 256 L 119.964844 256 C 106.972656 256 96.398438 245.429688 96.398438 232.433594 L 96.398438 226.996094 C 90.875 225.234375 85.507812 223.003906 80.351562 220.335938 L 76.5 224.1875 C 67.167969 233.53125 52.226562 233.253906 43.167969 224.183594 L 31.8125 212.828125 C 22.738281 203.765625 22.476562 188.824219 31.8125 179.496094 L 35.664062 175.648438 C 32.996094 170.492188 30.765625 165.125 29 159.601562 L 23.566406 159.601562 C 10.574219 159.601562 0 149.027344 0 136.035156 L 0 119.964844 C 0 106.972656 10.574219 96.398438 23.566406 96.398438 L 29.003906 96.398438 C 30.765625 90.875 32.996094 85.507812 35.664062 80.351562 L 31.8125 76.5 C 22.476562 67.175781 22.734375 52.234375 31.816406 43.167969 L 43.171875 31.8125 C 52.25 22.71875 67.191406 22.492188 76.503906 31.816406 L 80.351562 35.664062 C 85.507812 32.996094 90.875 30.765625 96.398438 29 L 96.398438 23.566406 C 96.398438 10.570312 106.972656 0 119.96875 0 L 136.035156 0 C 149.027344 0 159.601562 10.570312 159.601562 23.566406 L 159.601562 29.003906 C 165.125 30.765625 170.492188 32.996094 175.648438 35.664062 L 179.5 31.8125 C 188.828125 22.46875 203.773438 22.746094 212.832031 31.816406 L 224.1875 43.171875 C 233.261719 52.234375 233.523438 67.175781 224.183594 76.503906 L 220.335938 80.351562 C 223.003906 85.507812 225.234375 90.875 226.996094 96.398438 L 232.433594 96.398438 C 245.425781 96.398438 256 106.972656 256 119.964844 L 256 136.035156 C 256 149.027344 245.425781 159.601562 232.433594 159.601562 L 226.996094 159.601562 C 225.234375 165.125 223.003906 170.492188 220.335938 175.648438 L 224.1875 179.5 C 233.523438 188.824219 233.265625 203.765625 224.183594 212.832031 L 212.828125 224.1875 C 203.75 233.28125 188.808594 233.507812 179.496094 224.1875 L 175.648438 220.335938 C 170.492188 223.003906 165.125 225.234375 159.601562 227 L 159.601562 232.433594 C 159.601562 245.429688 149.027344 256 136.03125 256 Z M 82.859375 204.585938 C 90.023438 208.820312 97.730469 212.023438 105.773438 214.097656 C 109.085938 214.953125 111.398438 217.9375 111.398438 221.359375 L 111.398438 232.433594 C 111.398438 237.15625 115.242188 241 119.96875 241 L 136.035156 241 C 140.757812 241 144.601562 237.15625 144.601562 232.433594 L 144.601562 221.359375 C 144.601562 217.9375 146.914062 214.953125 150.226562 214.097656 C 158.269531 212.023438 165.976562 208.820312 173.140625 204.585938 C 176.089844 202.84375 179.84375 203.316406 182.261719 205.738281 L 190.109375 213.582031 C 193.488281 216.96875 198.921875 216.890625 202.21875 213.585938 L 213.582031 202.222656 C 216.875 198.933594 216.984375 193.503906 213.585938 190.109375 L 205.738281 182.261719 C 203.316406 179.839844 202.84375 176.089844 204.585938 173.140625 C 208.824219 165.976562 212.023438 158.269531 214.097656 150.226562 C 214.953125 146.914062 217.941406 144.601562 221.359375 144.601562 L 232.433594 144.601562 C 237.15625 144.601562 241 140.757812 241 136.035156 L 241 119.96875 C 241 115.242188 237.15625 111.402344 232.433594 111.402344 L 221.359375 111.402344 C 217.941406 111.402344 214.953125 109.085938 214.097656 105.773438 C 212.023438 97.734375 208.820312 90.023438 204.585938 82.859375 C 202.84375 79.914062 203.316406 76.160156 205.738281 73.738281 L 213.582031 65.894531 C 216.972656 62.507812 216.886719 57.078125 213.585938 53.78125 L 202.222656 42.417969 C 198.929688 39.121094 193.496094 39.023438 190.109375 42.414062 L 182.265625 50.261719 C 179.84375 52.683594 176.089844 53.160156 173.140625 51.414062 C 165.980469 47.179688 158.269531 43.980469 150.226562 41.902344 C 146.914062 41.050781 144.601562 38.0625 144.601562 34.640625 L 144.601562 23.566406 C 144.601562 18.84375 140.757812 15 136.035156 15 L 119.96875 15 C 115.242188 15 111.402344 18.84375 111.402344 23.566406 L 111.402344 34.640625 C 111.402344 38.0625 109.085938 41.046875 105.773438 41.902344 C 97.734375 43.976562 90.023438 47.179688 82.859375 51.414062 C 79.910156 53.15625 76.160156 52.683594 73.738281 50.261719 L 65.894531 42.417969 C 62.511719 39.03125 57.078125 39.109375 53.78125 42.414062 L 42.417969 53.777344 C 39.128906 57.066406 39.015625 62.496094 42.414062 65.890625 L 50.261719 73.738281 C 52.683594 76.160156 53.15625 79.910156 51.414062 82.859375 C 47.179688 90.023438 43.976562 97.730469 41.902344 105.773438 C 41.046875 109.085938 38.0625 111.398438 34.640625 111.398438 L 23.566406 111.398438 C 18.84375 111.398438 15 115.242188 15 119.964844 L 15 136.035156 C 15 140.757812 18.84375 144.601562 23.566406 144.601562 L 34.640625 144.601562 C 38.0625 144.601562 41.046875 146.914062 41.902344 150.226562 C 43.976562 158.269531 47.179688 165.976562 51.414062 173.140625 C 53.15625 176.089844 52.683594 179.839844 50.261719 182.261719 L 42.417969 190.105469 C 39.027344 193.492188 39.113281 198.921875 42.414062 202.21875 L 53.777344 213.582031 C 57.070312 216.878906 62.503906 216.976562 65.890625 213.585938 L 73.738281 205.738281 C 75.519531 203.953125 79.230469 202.441406 82.859375 204.585938 Z M 82.859375 204.585938 "/>
<path style=" stroke:none;fill-rule:nonzero;fill:rgb(0%,0%,0%);fill-opacity:1;" d="M 128 183.699219 C 97.285156 183.699219 72.300781 158.714844 72.300781 128 C 72.300781 97.285156 97.285156 72.300781 128 72.300781 C 158.714844 72.300781 183.699219 97.285156 183.699219 128 C 183.699219 158.714844 158.714844 183.699219 128 183.699219 Z M 128 87.300781 C 105.558594 87.300781 87.300781 105.558594 87.300781 128 C 87.300781 150.441406 105.558594 168.699219 128 168.699219 C 150.441406 168.699219 168.699219 150.441406 168.699219 128 C 168.699219 105.558594 150.441406 87.300781 128 87.300781 Z M 128 87.300781 "/>
</g>
</svg>
