<svg width="24" height="24" viewBox="0 0 24 24" fill="none" xmlns="http://www.w3.org/2000/svg">
<path fill-rule="evenodd" clip-rule="evenodd" d="M24 24C24 24 24 22.35 23.8625 21.4875C23.75 20.8062 22.8063 19.9062 18.7938 18.4312C14.8438 16.9812 15.0875 17.6875 15.0875 15.0188C15.0875 13.2875 15.9688 14.2938 16.5312 11.0063C16.75 9.7125 16.925 10.575 17.4 8.5C17.65 7.4125 17.2313 7.33125 17.2812 6.8125C17.3312 6.29375 17.3813 5.83125 17.475 4.76875C17.5875 3.45625 16.3687 0 12 0C7.63125 0 6.4125 3.45625 6.53125 4.775C6.625 5.83125 6.675 6.3 6.725 6.81875C6.775 7.3375 6.35625 7.41875 6.60625 8.50625C7.08125 10.575 7.25625 9.7125 7.475 11.0125C8.0375 14.3 8.91875 13.2937 8.91875 15.025C8.91875 17.7 9.1625 16.9937 5.2125 18.4375C1.2 19.9062 0.25 20.8125 0.14375 21.4937C0 22.35 0 24 0 24H12H24Z" fill="#2ECC71"/>
<mask id="mask0" mask-type="alpha" maskUnits="userSpaceOnUse" x="0" y="0" width="24" height="24">
<path fill-rule="evenodd" clip-rule="evenodd" d="M24 24C24 24 24 22.35 23.8625 21.4875C23.75 20.8062 22.8063 19.9062 18.7938 18.4312C14.8438 16.9812 15.0875 17.6875 15.0875 15.0188C15.0875 13.2875 15.9688 14.2938 16.5312 11.0063C16.75 9.7125 16.925 10.575 17.4 8.5C17.65 7.4125 17.2313 7.33125 17.2812 6.8125C17.3312 6.29375 17.3813 5.83125 17.475 4.76875C17.5875 3.45625 16.3687 0 12 0C7.63125 0 6.4125 3.45625 6.53125 4.775C6.625 5.83125 6.675 6.3 6.725 6.81875C6.775 7.3375 6.35625 7.41875 6.60625 8.50625C7.08125 10.575 7.25625 9.7125 7.475 11.0125C8.0375 14.3 8.91875 13.2937 8.91875 15.025C8.91875 17.7 9.1625 16.9937 5.2125 18.4375C1.2 19.9062 0.25 20.8125 0.14375 21.4937C0 22.35 0 24 0 24H12H24Z" fill="white"/>
</mask>
<g mask="url(#mask0)">
<rect width="24" height="24" fill="#2ECC71"/>
</g>
</svg>
