<svg id="visual" viewBox="0 0 900 600" width="900" height="600" xmlns="http://www.w3.org/2000/svg" xmlns:xlink="http://www.w3.org/1999/xlink" version="1.1"><path d="M0 433L21.5 429.8C43 426.7 86 420.3 128.8 426C171.7 431.7 214.3 449.3 257.2 449.7C300 450 343 433 385.8 433.2C428.7 433.3 471.3 450.7 514.2 456.7C557 462.7 600 457.3 642.8 446.8C685.7 436.3 728.3 420.7 771.2 416.3C814 412 857 419 878.5 422.5L900 426L900 601L878.5 601C857 601 814 601 771.2 601C728.3 601 685.7 601 642.8 601C600 601 557 601 514.2 601C471.3 601 428.7 601 385.8 601C343 601 300 601 257.2 601C214.3 601 171.7 601 128.8 601C86 601 43 601 21.5 601L0 601Z" fill="#77dd9d"></path><path d="M0 487L21.5 481C43 475 86 463 128.8 460.5C171.7 458 214.3 465 257.2 464.8C300 464.7 343 457.3 385.8 462.2C428.7 467 471.3 484 514.2 491.7C557 499.3 600 497.7 642.8 489C685.7 480.3 728.3 464.7 771.2 462.7C814 460.7 857 472.3 878.5 478.2L900 484L900 601L878.5 601C857 601 814 601 771.2 601C728.3 601 685.7 601 642.8 601C600 601 557 601 514.2 601C471.3 601 428.7 601 385.8 601C343 601 300 601 257.2 601C214.3 601 171.7 601 128.8 601C86 601 43 601 21.5 601L0 601Z" fill="#58d587"></path><path d="M0 493L21.5 492.3C43 491.7 86 490.3 128.8 491C171.7 491.7 214.3 494.3 257.2 492.2C300 490 343 483 385.8 483C428.7 483 471.3 490 514.2 489.8C557 489.7 600 482.3 642.8 486.8C685.7 491.3 728.3 507.7 771.2 509C814 510.3 857 496.7 878.5 489.8L900 483L900 601L878.5 601C857 601 814 601 771.2 601C728.3 601 685.7 601 642.8 601C600 601 557 601 514.2 601C471.3 601 428.7 601 385.8 601C343 601 300 601 257.2 601C214.3 601 171.7 601 128.8 601C86 601 43 601 21.5 601L0 601Z" fill="#2ecc71"></path><path d="M0 522L21.5 524.2C43 526.3 86 530.7 128.8 533.7C171.7 536.7 214.3 538.3 257.2 537.5C300 536.7 343 533.3 385.8 529.3C428.7 525.3 471.3 520.7 514.2 519.2C557 517.7 600 519.3 642.8 522C685.7 524.7 728.3 528.3 771.2 527.2C814 526 857 520 878.5 517L900 514L900 601L878.5 601C857 601 814 601 771.2 601C728.3 601 685.7 601 642.8 601C600 601 557 601 514.2 601C471.3 601 428.7 601 385.8 601C343 601 300 601 257.2 601C214.3 601 171.7 601 128.8 601C86 601 43 601 21.5 601L0 601Z" fill="#27b062"></path><path d="M0 568L21.5 566C43 564 86 560 128.8 555.7C171.7 551.3 214.3 546.7 257.2 544.5C300 542.3 343 542.7 385.8 542.8C428.7 543 471.3 543 514.2 546.2C557 549.3 600 555.7 642.8 559C685.7 562.3 728.3 562.7 771.2 564.5C814 566.3 857 569.7 878.5 571.3L900 573L900 601L878.5 601C857 601 814 601 771.2 601C728.3 601 685.7 601 642.8 601C600 601 557 601 514.2 601C471.3 601 428.7 601 385.8 601C343 601 300 601 257.2 601C214.3 601 171.7 601 128.8 601C86 601 43 601 21.5 601L0 601Z" fill="#209553"></path></svg>